<svg version="1.1" viewBox="0.0 0.0 600.0 600.0" fill="none" stroke="none" stroke-linecap="square" stroke-miterlimit="10" xmlns:xlink="http://www.w3.org/1999/xlink" xmlns="http://www.w3.org/2000/svg"><clipPath id="p.0"><path d="m0 0l600.0 0l0 600.0l-600.0 0l0 -600.0z" clip-rule="nonzero"/></clipPath><g clip-path="url(#p.0)"><path fill="#000000" fill-opacity="0.0" d="m0 0l600.0 0l0 600.0l-600.0 0z" fill-rule="evenodd"/><path fill="#381d40" d="m-3.7454069 -2.28084l642.1102 0l0 612.1575l-642.1102 0z" fill-rule="evenodd"/><path stroke="#381d40" stroke-width="1.0" stroke-linejoin="round" stroke-linecap="butt" d="m-3.7454069 -2.28084l642.1102 0l0 612.1575l-642.1102 0z" fill-rule="evenodd"/><path fill="#ffffff" d="m261.0042 117.25799l4.267639 0.1991272l2.182251 0.39554596l1.5875549 0.39823914l-0.49508667 0.49510956l-2.3840637 0.39823914l-3.075592 0.6942291l-4.168091 1.886261l-2.4809265 1.6871414l-3.5707092 3.4711533l-4.3671875 6.549446l-2.182251 4.267624l-2.085373 4.1680756l-1.983139 3.1751556l-0.89334106 0.6969147l-0.3982544 0l-0.99290466 -0.29867554l-2.182251 0.1991272l-2.6800537 1.0897675l-2.87648 2.0853882l-1.4880066 1.3884583l-4.267639 3.8693848l0 0l0.6942291 -5.952072l0.5946655 -5.459671l0.8933563 -4.0684967l1.0924683 -3.4738464l5.2578583 0.59736633l5.2605286 0.5946655l1.1893463 -3.4738464l0.7964783 -2.0826874l1.983139 -3.772522l2.58049 -3.2747192l2.9760284 -2.58049l3.4738464 -1.9831314l3.7725067 -1.2915878l3.9689636 -0.59467316zm24.709747 22.627052l0.4951172 0.29599l1.886261 3.1751556l1.0924683 2.3840637l2.4809265 5.755661l-3.5733948 9.030365l-3.8694153 9.625046l-3.0782776 7.0445404l-1.0897827 1.7866974l-0.29867554 0.1991272l-0.7937927 -0.5946655l-0.9929199 -1.7866974l-0.49508667 -1.3884735l0.09954834 -1.7866974l0.7937927 -0.89334106l1.189331 -1.391159l0 -0.9902191l-0.9929199 -0.0995636l-0.7937927 0l-1.189331 0.0995636l-0.7937927 -0.89334106l0.09957886 -1.0924835l0.19641113 -1.2888947l-0.99020386 -0.59736633l-1.6871338 0.2986908l-1.0924683 0.19911194l-1.4880371 -0.19911194l-0.89334106 -1.0924683l-0.4951172 -2.2818146l-0.09954834 -1.7866974l0 -1.687149l0.89334106 -1.2888947l1.3884583 -0.0995636l2.182251 -0.29867554l1.6871338 -0.3955536l0.5946655 -0.39823914l1.2915955 -2.2818146l0.9929199 -2.87648l0.39553833 -2.4809265l-0.1991272 -0.49780273l-0.49508667 -0.09954834l-2.8764954 0.79377747l-1.886261 0.7937927l-1.6871338 0.7937927l-2.5805054 0.6969147l-1.5875549 -0.29867554l-0.4951172 -1.3884583l0.19641113 -1.0924683l0.5973816 -0.6942291l4.762726 -2.879181l6.44989 -3.3742676l5.45697 -2.3813782l1.2915955 -0.29599zm-33.93924 21.93013l0.99290466 0.0995636l1.8835754 1.5875854l0.7964783 1.3884583l0.793808 1.3911438l2.3813477 3.0756073l1.0897827 1.189331l2.6800537 2.4809418l-4.6631775 3.1778412l-2.2818146 1.4880219l-4.961853 2.3813782l-5.16098 1.6871338l-4.9618683 0.99290466l-2.381363 0l-3.6729584 -0.09954834l-1.0924835 -0.1991272l0.59736633 -1.6871338l4.364502 -7.641922l1.886261 -2.87648l1.2915955 -1.4880066l3.1751556 -2.9787445l3.3742828 -2.381363l2.87648 -1.4880219l0.99290466 -0.0995636zm58.748535 -9.923721l1.8835754 0.1991272l1.2915955 0.5946655l3.3742676 1.2915955l6.3503113 2.381363l3.9689636 1.5875854l2.779602 1.5875854l0.6942444 0.99290466l0 0.5946655l0 1.4880219l-0.6942444 1.7866974l-1.9858093 0.7937927l-3.9689636 0l-2.9760437 -0.19911194l-3.5733948 -0.29599l-3.5733948 0.09686279l-1.5875854 0.49780273l-0.9929199 0.89334106l-0.69421387 1.4880219l-0.39553833 3.2747192l-0.09957886 3.2747192l0 2.9760437l-0.89334106 4.267639l-1.3884583 1.9858093l-1.2915955 0.7937927l-2.5804749 0.6942291l-6.845459 0l0.8933716 2.4809418l0.5946655 1.4880066l1.6871338 2.58049l2.0827026 1.9858246l2.1849365 1.0897827l1.0897827 0.0995636l1.0924683 -0.1991272l3.4738464 -2.2818146l4.862274 -4.563614l6.250763 -6.7485657l3.6729736 -4.1680603l2.182251 -2.4809418l4.1680603 -3.9689484l4.168091 -3.075592l4.466736 -2.2845001l2.3813782 -0.7937927l2.3813782 -0.7937927l2.8764648 -0.49510193l0.3982544 0.79377747l-1.9858398 1.7867126l-2.082672 1.3884583l-5.16098 3.2747192l-3.9689636 2.58049l-1.6871338 1.3884583l-5.556549 5.7556458l-2.8791504 3.4738464l-2.8764954 3.5733948l-5.0614014 5.755661l-4.5663147 4.267624l-3.8693848 2.7769165l-3.4738464 1.2915955l-2.8764954 -0.0995636l-2.5804749 -1.5875854l-2.2818298 -2.8791656l-1.0924683 -2.0826874l-0.7937927 -1.886261l-0.89334106 -4.1680756l-0.1991272 -4.563614l0.49780273 -4.7654266l1.0897827 -4.9618683l1.886261 -5.0614166l2.4809265 -5.058731l3.0756226 -4.961853l1.886261 -2.3813782l1.2888794 -1.6871338l2.1849365 -2.0853882l1.7867126 -0.7937927zm-54.381348 32.84677l-0.39823914 1.3911438l-2.9760437 5.058731l-2.779602 4.7654266l-4.4640656 9.923721l-3.1778412 11.31218l-2.3813782 13.098892l-0.7937927 7.542343l-1.189331 12.105972l-0.6942291 -7.343231l-0.2986908 -3.5733948l-0.09954834 -9.129929l0.49510193 -10.4188385l0.99290466 -10.418823l0.6942444 -4.765442l1.1920166 -7.440094l1.4880219 -4.267624l1.4880219 -1.1920319l1.1920319 -0.3955536l1.3884583 -0.49780273l3.772522 -1.9831238l1.8835754 -1.1920319l3.2747192 -1.9858246l1.3911438 -0.5946655zm18.456299 3.772522l0.29867554 0.9902191l-1.1920166 3.8720703l-1.2889099 2.9760437l-2.6800537 6.5494385l-4.1680603 12.105972l-2.6800537 11.31488l-1.2889099 10.916626l-0.09954834 5.45697l-0.09957886 3.4738312l-0.49508667 5.8552246l-0.3982544 1.4880066l-0.5946655 1.1893463l0.39822388 2.4809265l1.0897827 1.7867126l0.7937927 1.3884583l0.7937927 2.6800537l0 0.7937927l-0.4951172 0.89334106l-2.5804749 2.1849365l-3.4738464 2.182251l-3.3742828 1.3884583l-1.3884583 0.29867554l-2.4809265 0.09957886l0.0995636 -17.266968l0 -7.542343l0.6942291 -12.902451l0.39823914 -3.7698364l1.3884583 -6.7485657l2.58049 -8.930801l2.1822357 -5.3574066l2.480957 -4.765442l2.779602 -4.2649384l3.075592 -3.772522l3.374298 -3.2747192l1.7866821 -1.3884583l1.9831238 -1.3911438l1.886261 -0.9902191zm76.61014 -13.002014l3.9689636 1.6871338l11.414429 5.6560974l6.5494385 3.4738312l10.219727 5.755661l7.4427795 5.2605286l5.6560974 5.357422l2.4809265 2.8791656l3.2747192 4.068512l4.961853 4.563614l4.068512 2.6800537l1.5875854 1.1920319l2.6800537 3.6702728l1.1920166 2.779602l1.3884583 2.87648l5.6560974 9.627731l3.3742676 5.061432l5.260559 8.137009l5.9520874 10.817062l2.5804749 5.8552246l0.7937927 2.3813782l0.1991272 0.89334106l-0.5946655 1.2889099l-1.5875854 0.49508667l-2.0853882 -0.29599l-1.189331 -0.49777222l-1.5875854 -1.1893616l-8.435699 -8.137024l-5.3601074 -5.559204l-4.563629 -4.762741l-6.848114 -7.937912l-4.6631775 -6.3503113l-2.879181 -5.658783l-0.89334106 -2.677353l-1.189331 -4.068512l-0.9929199 -1.5875854l-0.89334106 0.4951172l-0.5946655 0.5946655l-0.6942444 0.7937927l-1.2915955 2.381363l-0.39553833 1.1920319l-0.69421387 2.9760437l-2.3813782 -3.0756073l-1.1920471 -1.5875702l-3.3742676 -5.45697l-1.4880371 -2.9787292l-1.8862305 -3.6702728l-3.8694153 -5.459671l-4.466736 -4.068512l-5.9520874 -3.2747192l-3.9716492 -1.4880066l-8.236572 -3.2747345l-9.724609 -4.3671875l-2.2817993 -1.5875702l-2.182251 -1.886261l3.471161 -6.944992l1.4906921 -2.879181l2.2818298 -3.7698212l0.49508667 -0.39823914zm-56.46402 -38.204178l0.9929199 0.5946655l0.49508667 0.6942444l1.4880371 4.3671875l0.7937927 2.9760284l1.9858093 7.343231l-2.779602 3.57341l-1.6871338 2.381363l-2.9760437 5.16098l-2.1849365 5.6560974l-1.5875854 5.954773l-0.89334106 6.5494385l-0.19644165 6.848114l0.4951172 7.2436676l1.1920166 7.738785l0.89334106 3.9716492l2.182251 8.432999l6.350342 19.252777l3.3742676 8.236588l2.779602 6.2507477l0.7937927 1.9858246l-0.9928894 0.39823914l-3.374298 0.4951172l-3.7698364 0.39553833l-2.4809265 0.69692993l-1.0924683 0.19642639l-1.0924683 -0.8933563l-0.29599 -1.3884583l-0.29867554 -1.2888947l-1.6871338 -3.0782928l-0.9929199 -1.2888947l-1.0897827 -1.1920319l-1.2915955 -0.7937927l-0.5946655 0l-0.5946655 0.99290466l-0.39822388 3.4738464l-0.09957886 2.6800537l0 2.9760437l-0.39553833 2.182251l-0.5973816 0.5973511l-0.39553833 0l-0.89334106 0.09954834l-2.182251 0.9902344l-2.0853882 1.6871338l-1.6871338 2.1849365l-0.4951172 1.1893616l-0.49780273 1.4880066l-0.69421387 4.3671875l-0.09957886 2.1849365l0 5.257843l2.879181 -4.2676086l1.2889099 -1.9831238l2.779602 -2.7796326l2.6800537 -1.4880066l2.7769165 -0.29867554l1.4907227 0.39822388l2.3813477 0.8933716l1.5875854 0l0.39553833 -0.6942444l0 -0.5973511l0.09957886 -0.6942444l1.2915955 -1.9831238l0.8906555 -0.89334106l0.89334106 -0.8933716l2.0853882 -0.9928894l2.2817993 -0.49780273l2.2818298 0.1991272l2.3813477 0.7937622l2.0853882 1.1920471l1.886261 1.7866821l1.4880066 2.182251l0.4951172 1.1920471l0.49780273 1.6871338l-0.49780273 1.4880371l-1.3884583 0.49508667l-2.182251 0.6942444l-1.7866821 0.1991272l-2.5805054 0.29867554l-8.336151 2.3813477l-9.525482 3.670288l-7.8410034 3.772522l-2.182251 1.5875854l-0.5973816 0.49508667l-1.189331 0.3982544l-0.3982544 -0.09954834l-0.39553833 -0.9929199l-1.4880066 -7.0445557l-2.7796326 -16.077606l-1.1920166 -10.1228485l-0.5946655 -6.0516357l0 -10.023285l0.5946655 -5.954773l0.5973511 -5.257843l1.9831238 -10.023285l3.4738464 -10.717499l5.556549 -13.198456l3.8720703 -8.336136l2.182251 -4.665863l3.4738464 -8.930817l2.4809265 -8.236572l1.4880066 -7.639221l0.29867554 -3.4738464l0.29599 -4.5663147l-0.19909668 -3.075592l-0.4951172 -0.7937927l-0.4951172 -0.29867554l-0.5973511 -0.19644165l-0.4951172 -0.79377747l0.09954834 -0.2986908l0.59469604 -0.6942291zm145.37927 147.16597l3.5733948 0.29870605l0.39556885 0.49508667l-0.4951172 1.7867126l-3.5733948 6.5494385l-1.6871338 2.1849365l-0.8933716 0.8906555l-2.5777893 1.0924683l-1.4907227 0.09957886l-2.9760132 0l0 -5.3601074l0.09954834 -4.563629l0.39553833 -2.182251l0.5973816 -0.49780273l3.769806 -0.5946655l4.8623047 -0.1991272zm-137.1427 -2.9760132l0.29599 0.19909668l0.09957886 2.2818298l-0.19644165 1.6871338l-0.09954834 2.3813782l0.19641113 5.0614014l0.9929199 5.45697l1.4880066 5.061432l0.9929199 2.3813782l1.6871338 3.8693848l0.29867554 1.2915955l0 0l-2.6800232 -0.1991272l-14.88559 -2.4809265l-2.6800537 -0.6942444l-0.6942444 -2.0853882l-2.2817993 -10.518372l-0.29867554 -2.8764954l0.09954834 -0.89334106l0.7937927 -1.6871338l2.2818298 -2.5805054l4.961853 -2.9760437l6.2534485 -2.1849365l3.3742676 -0.49508667zm45.646973 -53.886246l1.2915955 0.29867554l4.364502 0.8933563l9.030365 1.8835602l9.229492 1.7867126l4.8623047 0.49778748l2.8791504 0.0995636l4.068512 0.4951172l2.6800537 1.1920319l1.8835754 2.182251l0.89334106 1.5875702l1.1920471 2.182251l3.3742676 4.3671875l4.4640503 4.267639l5.4596863 4.1680603l3.075592 1.983139l6.9476624 4.466736l8.632141 6.7485657l3.7698364 3.670288l0.89334106 1.291565l0.3982544 0.7937927l0.29867554 1.2889099l-0.49780273 2.1849365l-1.3884583 2.7769165l-1.3884583 2.4809265l-0.9929199 4.168091l0.09957886 2.5804749l0.19641113 4.6631775l-4.068512 2.1849365l-5.257843 2.2818298l-8.336151 3.075592l-7.841034 2.779602l-3.5707092 1.3884583l-3.8720703 1.2915955l-16.769135 3.471161l-9.528198 1.5875854l-6.151184 0.7937927l-13.3975525 0.89334106l-7.5423584 0.09954834l-15.281128 0l-1.4880371 -2.7769165l-2.0853577 -3.5733948l-3.4738464 -5.2605286l-2.4809265 -3.670288l-1.2889099 -3.4738464l-0.09954834 -2.8764648l0.09954834 -1.9858093l0.1991272 -6.054352l2.8764648 0l1.2915955 -0.09954834l2.9760437 -1.8835754l3.6729736 -3.8720703l4.6631775 -6.350342l2.8764648 -4.3671875l2.5805054 -4.068512l4.3671875 -7.639206l3.6702576 -8.435699l3.772522 -10.61795l2.0827026 -6.947693l0.29867554 -0.49510193l1.3884583 -0.39823914zm-165.32628 70.35939l6.7485504 0.09954834l6.1511993 0.59469604l2.3840637 0.69421387l3.7698364 1.1920471l7.4427795 3.5707092l6.8481293 4.7654114l6.1511993 5.7556458l2.6800537 3.175171l2.9760284 3.8693848l2.9787445 4.5663147l0.6942291 1.8835754l0 0.29867554l-3.4738464 0.29867554l-11.01619 0.29599l-6.0516357 0.09957886l-12.703339 0.5946655l-12.205536 1.1920166l-10.817062 1.3884583l-4.3671875 0.7937927l-5.852524 1.3911438l-16.17717 4.8623047l-5.0614166 1.8835754l-0.7937927 0.29867554l-0.7937927 -0.69421387l0.99290466 -4.3671875l2.6800537 -6.8481445l1.687149 -4.068512l3.075592 -6.4498596l3.0756073 -5.16098l3.5733948 -4.2649536l2.0826874 -2.0853882l1.886261 -1.6871338l3.3742828 -2.5804749l3.4738464 -2.0827026l3.8693848 -1.4880066l2.182251 -0.5973816l2.3840637 -0.5946655l6.1511993 -0.5946655zm39.99356 -1.6871338l2.2818146 0.69421387l5.8552094 2.879181l4.6631775 2.6773682l3.2747192 2.0853882l7.6419067 6.151184l8.03746 7.841034l7.8383484 8.831238l3.4738464 4.5663147l3.672943 4.9618835l8.831268 14.089081l3.968933 6.848114l4.4667664 8.037476l7.7387695 12.504211l6.848114 9.030365l6.6490173 6.352997l3.473816 2.3813782l1.3884583 0.8933716l1.6871643 1.3884583l0.09954834 0.39553833l-0.5946655 0.09954834l-3.078308 -0.69421387l-6.5494385 -2.4809265l-3.5707092 -2.0827026l-2.0853577 -1.5875854l-6.0516357 -5.459656l-2.879181 -3.075592l-2.182251 -2.2817993l-3.4738464 -4.267639l-5.061432 -8.336151l-5.2605286 -10.418823l-4.068512 -7.6419067l-8.037445 -14.586914l-2.7769165 -4.466736l-2.7796326 -3.9689636l-7.144104 -8.634827l-8.139709 -8.336121l-8.03746 -6.9450073l-3.5707092 -2.5804749l-5.16098 -3.4738464l-1.5875854 -1.2889099l0.1991272 -0.09954834zm67.48021 -193.50986l-5.360077 0.09955597l-2.8764954 0.7937927l-1.4906921 0.59467316l-3.0756226 2.680046l-1.5875854 1.9831314l-3.075592 4.3671875l-3.1751404 -1.3884583l-1.6871643 -0.5973587l-4.3671875 -0.59467316l-5.0614014 0.0995636l-4.86232 0.6942291l-2.0826874 0.5946655l-2.1849365 0.8933563l-4.1680756 2.58049l-3.8693848 3.4738388l-2.87648 3.8693924l-0.8933563 1.985817l-1.6871338 4.068512l-3.772522 -0.49780273l-2.182251 -0.29599l-2.4809265 0.8933563l-1.3884583 1.4880219l-0.8933563 1.2888947l-1.6871338 4.3671875l-1.5875854 6.153885l-1.1920319 7.343231l-0.49510193 4.068512l-0.2986908 3.7698364l0.2986908 2.085373l0.89334106 0.29599l0.6942291 0l9.824173 -1.0897675l12.305084 -2.1849518l0.6942291 -0.09954834l0.4951172 0.29867554l-1.7840118 2.381363l-3.9716492 3.9689484l-2.7769165 2.9787292l-4.5663147 5.6560974l-3.3742676 5.8552094l-2.3813782 6.250763l-0.8933563 3.2747192l-0.6942291 2.9787292l0.0995636 2.0826874l0.7937927 0.8933563l0.5946655 0.49510193l0.69692993 0.49780273l0.7937927 1.3884583l0.19642639 4.762741l-0.6942291 8.535263l-0.29599 4.9618683l-0.1991272 10.122833l0.29599 10.219711l0.8933563 10.222397l1.2915802 9.923721l1.886261 9.525497l2.182251 8.930786l2.6800537 8.336151l1.4880219 3.772522l1.0924683 2.3813782l1.6844482 3.075592l1.4907074 1.0924683l1.687149 -0.7937927l0.89334106 -0.9929199l0.8906708 -0.89334106l1.3911438 -0.7937927l1.1893463 0.3982544l1.1920319 1.6844482l0.5946655 1.3911438l0.99290466 2.6800537l0.4951172 2.6773682l-0.19642639 0.9928894l-0.2986908 0.09957886l-2.182251 -0.5946655l-6.2534485 -1.7867126l-11.212616 -3.2747192l-16.274048 -4.4667664l-11.314865 -2.1822205l-9.129929 -0.4951172l-4.762741 0.29599l-5.6560974 0.49780273l-7.7414703 1.5875549l-4.8622894 1.5875854l-4.563629 1.9831238l-4.267624 2.3813782l-6.1511993 4.4667664l-3.772522 3.672943l-2.3813782 2.4809265l-4.267624 5.2578735l-3.4738464 5.360077l-2.677353 5.556549l-0.9929199 2.6800537l-1.6871338 5.5565186l-1.9858246 9.229492l-0.49510193 4.267639l0.0995636 0.7937927l0.49510193 0.29599l3.0756073 0.49780273l8.236572 0.09686279l15.482941 -0.9902344l16.669586 -1.9858093l7.345932 -1.2889099l7.440094 -1.2915955l14.490036 -1.7866821l13.298004 -0.89334106l11.5112915 0.19909668l4.762741 0.49780273l2.0826874 0.39556885l3.1778564 1.291565l3.1751556 3.670288l4.6631775 7.5423584l3.4738464 5.9547424l7.2436676 12.504211l7.243683 10.717529l4.3671875 5.1582947l2.4809265 2.5804749l2.4809265 2.3813782l5.2605286 4.3671875l5.6560974 3.9689636l6.0516357 3.5733948l6.3530273 3.075592l6.8454285 2.779602l7.047241 2.182251l7.5423584 1.886261l3.8693848 0.6942444l5.257843 0.7937927l11.5112915 0.29867554l11.31488 -1.0924683l7.343231 -1.5875854l4.068512 -1.4880066l1.6871338 -0.7937927l2.2817993 -0.9929199l1.3884888 -0.29867554l0.9928894 -0.29599l4.168091 -2.3840637l8.634796 -6.5494385l5.9520874 -5.45697l4.267639 -4.068512l8.930817 -9.923737l9.727264 -12.504211l11.2126465 -15.679352l6.3503113 -9.425934l5.7556458 -8.734375l9.030365 -14.487335l6.44989 -11.909546l4.3671875 -10.023285l1.4880066 -4.563629l1.5875854 -5.45697l2.3813782 -11.115723l0.29867554 -2.7796326l0 -0.4951172l-0.69421387 -0.19909668l-2.182251 1.2915955l-2.4809265 2.2817993l-1.4907227 1.4880066l-2.7769165 1.9858398l-0.7937927 0.19641113l-0.7937927 -0.09686279l-0.5973511 -0.9929199l0.39822388 -1.6871338l1.2889099 -2.0853882l0.9929199 -1.0897522l1.1920166 -1.0924988l1.3884583 -2.3813477l0.1991272 -0.8933716l-0.09954834 -0.89334106l-1.2889099 -3.2747192l-3.8720703 -7.2436676l-7.44281 -12.404648l-8.137024 -12.105972l-3.6702576 -4.6658783l-3.4738464 -4.267624l-7.243683 -8.236588l-7.542328 -7.639206l-7.841034 -7.343231l-8.137024 -6.7485657l-8.336151 -6.2534485l-8.632111 -5.6560974l-8.7344055 -5.16098l-4.3644714 -2.2817993l-4.267639 -2.2818146l-3.9689636 -2.58049l-1.1920166 -1.1893463l-0.1991272 -0.49780273l-0.5946655 -2.182251l-1.0924683 -3.4738312l-1.3884583 -3.7698364l-6.1512146 0l-3.2747192 -0.09954834l-6.9476624 -1.0924835l-7.5423584 -2.0826874l-8.037476 -3.0782928l-4.2676086 -1.8835602l-9.525482 -4.5663147l-2.0853882 1.886261l-0.9929199 0.7937927l-1.3884583 0.5946655l-1.189331 -0.6942291l-0.9929199 -2.0826874l-0.39822388 -1.687149l-0.4951172 -1.6871338l-1.5875854 -3.5733948l-0.89334106 -1.2889099l-0.89334106 -1.3911438l-0.29870605 -1.0897827l0.29870605 -0.59736633l0.29867554 -0.19642639l4.364502 -2.58049l5.954773 -4.168068l0.7937622 -0.8933487l0.09957886 -0.8933487l-1.2889099 -3.772522l-2.3840637 -4.762741l-2.7769165 -4.464058l-1.2915955 -1.5875778l-2.082672 -2.1849442l-4.5663147 -3.0755997l-5.0587463 -1.3884583z" fill-rule="evenodd"/><path fill="#ffffff" d="m337.6108 58.012833l0 1.7867012l-1.3911438 0.8933487l-1.5875854 -0.9929085l-1.2889099 2.1822472l2.182251 1.3911514l0.6942444 0.39554977l0.6968994 -0.39554977l2.8764954 -1.886261l-2.182251 -3.374279zm10.418823 6.4498825l-0.4951172 0.39823914l-1.1920166 0.9902191l-1.189331 -1.0897827l-1.6871338 1.786705l1.8835449 1.9831238l0.7937927 0.7937927l0.8933716 -0.6942291l2.5804749 -2.182251l-1.5875854 -1.985817zm-13.793091 3.8693848l-1.6871643 0.0995636l-0.7937927 0.19911957l-0.69421387 0.19911957l-0.5973511 0.29599l-0.39556885 0.6969223l-0.09954834 0.29599l-0.3982544 0.19911957l-0.39553833 0.09955597l-0.09954834 0l-5.260559 0.49510956l-0.09686279 0.39824677l-0.49780273 0.5946655l-0.89334106 0.49510956l-0.39556885 0.0995636l-0.39822388 0l-0.09957886 -0.3955536l-0.39553833 -0.29867554l-0.49780273 -0.1991272l-0.39553833 0.1991272l-0.6942444 0.4977951l-0.39822388 0.7937927l-0.29599 0.8933487l0.09686279 1.0897827l0.1991272 0.4977951l0.7937927 0.7937927l0.5973511 0.29599l1.4880066 0.29868317l2.9760437 0l1.3884583 -0.29868317l0.29867554 -0.0995636l0.59469604 -1.1893387l10.521057 0.19911957l0.19644165 -0.19911957l0.7937927 -0.99290466l0.39822388 -1.0924759l0.39556885 -0.09687042l0.7937927 -0.19911957l1.1920166 -0.09955597l0.6942444 0l0.39822388 0.09955597l0.4951172 -0.09955597l0.29867554 -0.39823914l0.09957886 -0.29599l0 -0.6942291l-0.09957886 -0.59736633l-0.1991272 -0.6942291l-0.39822388 -0.5946655l-0.29599 -0.19911957l-0.29867554 -0.19911957l-0.4951172 -0.0995636l-0.3982544 0.0995636l0.09957886 0l-1.4880371 0.29867554l-1.4880066 -0.09955597l-3.772522 0l-0.19644165 -0.49510956l-0.39822388 -0.29868317l-0.09957886 0l0.29870605 -0.29868317zm64.89972 30.564957l-0.29867554 0.09955597l-0.09954834 0.0995636l-1.3884888 0.09955597l-1.2888794 0.59467316l-0.6942444 0.39823914l-0.49780273 0.49510956l-0.39553833 0.6942291l0 0.7937927l0.39553833 1.0924683l1.6871643 1.5875778l1.0924683 0.29868317l3.075592 1.0897827l0.4951172 0.5973587l1.3911438 1.3884583l0.7937927 0.6942291l0.7937927 0.29868317l0.49508667 0.09955597l0.49780273 -0.19911957l0.39556885 -0.49510956l-0.09957886 -0.5973587l-0.19641113 -2.281807l-1.1920471 -3.0755997l-0.69421387 -0.9929123l-1.5875854 -1.3884583l-0.89334106 -0.59736633l0 -0.09955597l-0.09957886 0l-0.7937927 -0.59467316l-0.89334106 0l0 -0.09955597zm-72.84033 6.1538925l-0.09686279 0.5946655l-0.1991272 1.9858246l2.182251 0.19911957l1.4880371 2.3813705l2.0853577 -1.3911514l-1.7866821 -2.87648l-0.3982544 -0.59467316l-0.5946655 0l-2.6800537 -0.29867554zm5.5592346 -3.672966l-0.1991272 0.49780273l-1.1920166 2.58049l1.9858093 0.8933487l0 0.09687042l-0.09954834 0.0995636l-0.09957886 0.09955597l0 0.0995636l0 0.09955597l0 0.0995636l0 0.09955597l0.09957886 0.0995636l0.09954834 0.09687042l0 0.09955597l0.1991272 0.19911957l0.39553833 0.29868317l-0.09954834 -0.19911957l0.29867554 0.29867554l0.39822388 0.09687042l0.29599 0l1.5875854 0.7964859l0.5973816 0.29599l0.09686279 0.09955597l0.89334106 0l1.1920166 0.7937927l0.29870605 0.6942291l-0.09957886 -0.19911957l0.09957886 0.39823914l0.29599 0.29868317l0.19909668 0.19642639l0.1991272 0.09955597l0.4951172 0.0995636l1.7867126 0l0.49508667 -0.0995636l0.29867554 -2.281807l-1.886261 -2.3813705l-1.6871338 -1.2915878l-0.4951172 0l-0.7937622 -0.09687042l-0.3982544 -0.19911957l-0.29599 -0.0995636l0 -1.886261l-1.0924683 1.4880219l0 0.0995636l-0.1991272 0.09955597l-0.09954834 0.0995636l-0.29599 0.29867554l-0.29867554 0.29599l-0.4951172 0.59736633l-0.3982544 0.29599l-0.19909668 -0.0995636l-0.09689331 0l-0.29867554 -0.19642639l-0.39822388 0l1.1920166 -2.8791733l-2.2817993 -0.9929123zm-0.7937927 11.115753l0 0.7937927l0 2.58049l3.8693848 0.29599l-1.0924683 -2.9760437l-2.7769165 -0.6942291zm-106.87912 11.013496l0 1.2915955l-1.1893463 1.0924683l0.0995636 0.19642639l0.8933563 -0.8933487l1.0897827 -0.7937851l-0.8933563 -0.8933563zm78.89465 -71.74516l9.525482 0.19642639l18.754974 1.9858208l18.558533 3.7698326l18.06076 5.3601l8.930786 3.4738426l4.563629 1.8835678l9.030365 4.168068l8.833954 4.5663147l8.632111 5.0614166l8.336151 5.45697l8.037476 5.7556534l7.741455 6.2507553l7.4427795 6.549446l3.670288 3.4738388l-22.22882 22.228806l-0.8906555 0.1991272l-0.89334106 -0.1991272l-0.09957886 0l0 -0.09954834l0.1991272 -0.19644165l0.4951172 -0.5973511l0.1991272 -0.0995636l0.29599 -0.19642639l0 -2.2845001l-1.6871643 -1.6844559l-0.29599 0l-0.49777222 0.09687042l-1.2889099 0.0995636l-0.6942444 0l-0.49780273 -0.0995636l-0.29599 0l-0.19909668 -0.6942291l-0.1991272 -1.0897827l-0.29599 -1.0924683l0 -0.39823914l-0.29867554 -3.9689484l-1.4880371 -0.6942291l-0.29867554 -1.4880219l-2.2817993 0.19911957l0 -2.2845001l-1.5875854 -0.59467316l-0.9929199 -0.49510956l-0.19909668 -2.7796097l-4.9618835 -0.19911957l-1.2888794 -1.8835678l-1.886261 -2.8791733l-5.357422 -0.39554596l-1.2915955 -1.2915955l-2.2817993 -0.39554596l-1.886261 -0.8933487l-0.7937927 1.2888947l-4.1680603 0.1991272l-0.29599 1.3884583l-0.9929199 0.29867554l-1.6871338 0.0995636l-1.9858398 0.09955597l-2.082672 0l-6.1539 -2.9787292l-6.250763 -2.680046l0.09957886 -0.09687042l-0.5973816 -0.29868317l-7.2436523 -2.7796097l-14.786041 -4.464058l-15.082001 -3.0782928l-15.383392 -1.6871414l-7.7387695 -0.19642639l0 -9.229492l6.944977 0.6942291l1.2915955 2.182251l4.9618835 0.39823914l3.1751404 3.1751633l0.09957886 0.09955597l1.0897522 0.29868317l0.7937927 0l0.7937927 -0.0995636l0.5973816 -0.4977951l0.29599 -0.6942291l-0.19644165 -0.7937927l-0.3982544 -0.59467316l-0.5946655 -0.6942291l0 0.0995636l-2.5804749 -2.6800537l0 -2.3813705l-0.9929199 -0.8933487l-0.89334106 -3.1751556l-2.5805054 -0.8933563l0 -0.4977951l-0.89334106 0.39823914l-2.8764648 1.0924683l-2.879181 1.8835678l-3.2747192 0.49780273l-1.8835754 2.0826874l0 -26.692867zm-6.352997 0l0 36.91527l-4.6631775 0.09955597l-9.229492 0.69423676l-9.129944 1.1893387l-9.030365 1.6871338l-8.930817 2.1849442l-8.831253 2.58049l-8.634811 3.1751633l-8.5325775 3.6702652l-4.1680756 1.9858246l-0.19911194 0.09955597l-0.1991272 0l-0.19911194 0.0995636l-0.4951172 0.29599l-5.656082 2.9787292l-11.01619 6.649002l-10.4188385 7.343231l-9.923721 8.137024l-4.6631775 4.4640503l-26.19777 -26.197762l5.755661 -5.45697l12.105972 -10.122841l12.800201 -9.129929l13.59668 -8.137016l6.944992 -3.5734024l5.2605286 -2.58049l10.518402 -4.5636215l10.817062 -3.9689484l11.01619 -3.3742828l11.212616 -2.68005l11.312195 -2.0826912l11.411743 -1.4907074l11.5112915 -0.7937927l5.8552246 -0.09686661zm45.054962 71.050934l-0.29867554 0.19911957l-0.29867554 0.29868317l-0.09954834 0.3955536l0.09954834 0.39823914l0.1991272 0.39554596l0.1991272 0.19911957l0.19909668 0.19911957l0.39556885 0.29599l0.29867554 0.6969223l0.1991272 0.8933487l0.29599 1.2889023l0.19909668 0.6942291l1.0924683 1.0924683l0.7937927 0.1991272l1.1893616 0.29599l0.49780273 0.29867554l0.29599 0.29599l0.09954834 0.39823914l0.29867554 0.5946655l0.4951172 0.39823914l0.49780273 0.1991272l0.4951172 0.19642639l0.89334106 0.0995636l0.29867554 0.0995636l1.5875854 0.7937927l6.0516357 5.16098l0 -3.0756073l0 -0.29867554l-0.29599 -0.7937927l-0.1991272 -0.39823914l-0.29867554 -0.3955536l-0.4951172 -0.29867554l-0.5946655 -0.0995636l-0.5973511 -0.19642639l-0.8933716 -0.49780273l-0.29595947 -0.1991272l-0.1991272 -0.29599l0 -0.09954834l0.09954834 -0.49780273l-0.1991272 -0.4951172l-0.19909668 -0.29867554l-0.29599 -0.19642639l-0.6942444 -0.2986908l-0.7964783 -0.29867554l-1.2889099 -0.3955536l-0.49508667 -0.09954834l-0.49780273 -0.39823914l-0.9929199 -1.0897827l-0.29599 -0.29868317l-0.1991272 -0.19911957l0.1991272 -0.09687042l0.1991272 0l0.29599 -0.49780273l0 -0.49510956l-0.09957886 -0.7937851l-0.09954834 -0.29868317l-0.09686279 -0.49510956l-0.5973816 0.09955597l-1.3884583 0.19643402l-1.3884583 0l-0.09954834 -0.29599l0 -0.29868317l0 -0.6942291l0 -0.19911957l0.09954834 -0.49510956l-0.5973511 -0.19911957l-0.99020386 -0.19911957l-1.0924988 -0.0995636zm-198.37216 -57.556503l-1.4907074 0.59467316l-8.03746 3.0782928l-12.006409 5.158287l-7.94059 3.872078l-7.5396576 4.364502l-7.246361 5.16098l-6.649002 6.054329l-5.95208 7.0445557l-2.6800537 4.0685043l-1.4880142 2.3813705l-2.4809341 5.0614243l-2.9787292 7.7414703l-3.1751633 10.518394l-3.3742752 10.421509l-2.182251 4.8623047l0.9929123 0.7937927l9.030365 -7.9405975l13.89267 -11.312172l8.6321335 -8.435699l3.9716415 -4.762741l8.731689 -12.105972l13.497124 -18.35942l7.3432236 -8.535263l5.45697 -5.45697l2.7796173 -2.58049l0.0995636 -0.09955597l0.79377747 -1.5875854zm314.37854 0.39823914l-0.3982544 0.19643402l-1.2889099 0.6969223l1.2889099 0.49510956l2.879181 2.4809265l5.3573914 5.45697l7.343231 8.634819l13.397583 18.259865l8.831238 12.006409l1.886261 2.4809341l4.068512 4.566307l6.5494385 6.250763l13.8927 11.312172l9.030334 7.9405975l0.8933716 -0.7937927l-2.182251 -4.8623047l-3.3742676 -10.421509l-3.0756226 -10.518394l-2.9787598 -7.7414703l-2.480896 -5.0614243l-1.4880371 -2.3813705l-2.6800537 -4.0685043l-5.952057 -7.0445557l-6.6490173 -5.9547653l-7.1467896 -5.16098l-7.539673 -4.4640656l-7.9405823 -3.872078l-12.006409 -5.058731l-7.9405823 -3.0782928l-0.29599 -0.29599zm-65.99222 90.403275l0 0.09954834l-0.09954834 0l0.09954834 -0.09954834zm-2.4809265 5.2605286l-0.09954834 0.09687805l0 -0.09687805zm11.90686 4.762741l-0.6942444 0.0995636l-1.8835754 0.19642639l0.39556885 3.1778564l2.4809265 -0.29867554l-0.29867554 -3.175171zm8.236572 8.336151l-0.09686279 0.09954834l-0.3982544 0.09687805l-0.1991272 0.19911194l-0.19641113 0.3982544l0 0.49510193l0.19641113 0.8933563l0.3982544 0.49510193l0.1991272 0.29867554l-0.09957886 0.3982544l-0.19909668 0.49510193l0.09954834 0.99290466l0.5946655 0.7937927l0.7937927 0.4951172l0.49780273 0.0995636l1.0897827 0.19911194l0.9928894 0.4951172l0 0.09954834l1.0924988 0.6942291l0.7937622 0.9929199l0.29599 0.39823914l2.9787292 -0.8933563l0 -0.39823914l0.09957886 -0.29599l-0.09957886 -0.89334106l0 -0.39823914l-0.29867554 -0.4951172l-0.29867554 -0.1991272l-0.39553833 -0.09954834l-0.29867554 0.09954834l-0.29599 0.1991272l-0.09957886 -0.0995636l-0.19909668 -0.29867554l-0.29870605 -0.29599l-0.39553833 -0.39823914l-0.49780273 -0.29867554l-0.7937927 0l-0.09686279 -0.09687805l-0.1991272 -0.19911194l-0.39822388 -0.5946808l-0.6942444 -0.89334106l-0.39553833 -0.59736633l-0.29867554 -0.49510193l-0.3982544 -0.39823914l-0.6942444 -0.4951172l-0.7937622 -0.4951172l-0.7937927 -0.09954834zm6.5494385 9.525482l-3.6702576 0.29867554l0.5946655 0.8933563l0.69421387 0.79377747l0.5973816 0.4951172l0.49508667 0.49780273l0 0.29599l0 0.49780273l0 0.6942291l0.09957886 0.39553833l0.39553833 0.39823914l0.3982544 0.1991272l0.49508667 0.09686279l0.9929199 0.0995636l0.6942444 0.0995636l0.19909668 0l0.09957886 0.0995636l0.09954834 0.19911194l0.39553833 1.687149l-0.19641113 1.6871338l-0.09957886 0.8933563l0.29599 0.89334106l0.29870605 0.3955536l0.89334106 0.6942291l0.4951172 0l0.5973511 0.0995636l0.09686279 0l0 0.19911194l0 0.0995636l0.09957886 0.29599l0.19909668 0.1991272l0.29870605 0.09954834l0.29599 0l0.09954834 -0.09954834l0.29867554 -0.1991272l0.09954834 -0.19642639l0.1991272 -0.39823914l0.19644165 -0.4951172l0.49780273 -1.0924683l0.19641113 -0.3955536l0.1991272 -0.39823914l-0.29599 -0.29867554l-1.0924683 -1.1893463l-0.69421387 -1.3884583l-0.5973816 -1.6871338l-0.4951172 -1.6871338l0 0.09686279l-0.09954834 -0.5946655l-0.39553833 -0.1991272l-0.29867554 -0.19642639l-0.39556885 -0.1991272l-0.7964783 -0.29867554l-0.4951172 -0.19642639l-0.09954834 0l-0.1991272 -0.1991272l-0.29599 -0.29867554l-0.1991272 -0.3955536l-0.49508667 -0.6969147l-0.09957886 -0.19642639l-0.19909668 -0.39823914zm0.1991272 15.679367l1.3911438 1.2915955l1.2889099 1.2888947l-1.1920471 -2.58049zm-330.95123 -105.08973l-0.49510956 0.0995636l-4.068512 1.2888947l-7.6419144 3.5734024l-7.044548 4.9618607l-6.5494385 5.852516l-3.0782928 3.3742828l-3.0755997 3.6729584l-4.762741 7.9379044l-3.374279 8.535255l-2.0853806 9.03038l-1.1893387 9.329041l-0.29868317 9.525482l0.5973625 14.390472l0.7937889 9.425919l0.39554977 5.459671l-0.29867935 10.91394l-0.59466934 5.459656l1.192028 0.3955536l2.0826912 -4.068512l5.0614204 -7.641922l5.8552094 -7.0445404l6.649002 -6.250763l3.570713 -2.8791656l8.336136 -6.3503265l12.305092 -10.817062l7.542351 -7.7414703l6.649002 -8.336151l5.459656 -8.831253l3.1751633 -7.0445404l1.5875778 -4.9618607l1.0897827 -5.0614243l0.5973587 -5.16098l0.0995636 -2.6800537l-1.1920319 -0.19642639l-1.4880219 3.6702728l-3.9689484 6.449875l-4.9618607 5.7556458l-5.65609 5.1609955l-3.0782928 2.381363l-6.350319 4.762741l-9.724602 6.848114l-6.1538925 4.8623047l-2.7769165 2.58049l-2.4809341 2.2818146l-4.3671875 5.0614166l-3.8693886 5.3601074l-3.3742828 5.7556458l-1.488018 3.075592l3.1751595 -9.6250305l3.2747192 -9.727295l2.182251 -8.236588l3.374279 -17.067825l2.082695 -8.23658l1.1920242 -4.068512l3.1751633 -7.7414703l4.3671875 -7.044548l4.367195 -4.862297l3.3715897 -2.8791733l1.886261 -1.3884583l0.39823914 -0.19911957l-0.39823914 -1.0897827zm429.79022 0l-0.39556885 0.19642639l-1.291626 0.8933563l1.3911743 0.29867554l0.09686279 0.0995636l0.09954834 0l1.8862915 1.3884583l3.2747192 2.8791733l4.267639 4.762741l4.267639 7.044548l3.1751099 7.6419067l1.189331 3.968956l2.0853882 8.336136l3.3743286 17.067825l2.182251 8.236588l3.2747192 9.727295l3.1751099 9.6250305l-1.4879761 -2.9760284l-3.3743286 -5.755661l-3.968933 -5.459656l-4.466736 -5.0614166l-2.3813477 -2.2818146l-2.8765259 -2.58049l-6.1538696 -4.8623047l-9.625061 -6.848114l-6.3503113 -4.762741l-3.0782776 -2.381363l-5.6560974 -5.1609955l-4.961853 -5.7556458l-3.9689636 -6.5494385l-1.4880066 -3.6702652l-1.1920471 0.19642639l0.09957886 2.680046l0.5973511 5.260544l1.0897827 5.0614243l1.5875854 4.862297l3.0782776 7.144104l5.556549 8.831253l6.648987 8.336151l7.542328 7.7414703l12.205566 10.717499l8.435669 6.44989l3.5707397 2.8791656l6.648987 6.250763l5.8552246 7.0445404l4.961853 7.641922l2.182251 4.068512l1.1920166 -0.3955536l-0.69421387 -5.459656l-0.19909668 -10.91394l0.29864502 -5.459671l0.8933716 -9.425919l0.4951172 -14.390472l-0.29870605 -9.525482l-1.0897827 -9.329041l-2.1849365 -9.03038l-3.2747192 -8.535255l-4.8623047 -7.9379044l-3.0755615 -3.6729584l-2.9787598 -3.2747192l-6.44989 -5.7556534l-6.845398 -4.862297l-7.44281 -3.5707092l-3.9716187 -1.1920319l-0.19647217 -0.19911957l-0.09954834 -0.0995636l-0.29864502 -0.19642639zm-91.89133 102.90748l-0.5946655 0.0995636l0 0.49510193l-0.09954834 0.0995636l-0.09957886 0.29867554l0 0.19644165l0.09957886 0.49778748l0 0.4951172l0.09954834 0.49780273l0 0.39553833l0 0.0995636l-0.49780273 0.3955536l-0.39553833 0.49780273l-0.3982544 0.5946655l-0.39553833 0.49780273l-0.1991272 0.29599l-0.09954834 0.29867554l0 0.3955536l0.09954834 0.1991272l0.09957886 0.19911194l0.19641113 0.1991272l0.29867554 0.29599l0.1991272 0.29867554l0.1991272 0.19911194l0.19644165 0.0995636l0 0.09687805l0.09954834 0l0 0.09954834l3.3742676 3.3742828l3.2747192 3.57341l0.09957886 -0.6942291l0.19909668 -1.2915955l0 -0.8933563l-0.19909668 -0.7937927l-0.1991272 -0.39553833l-0.29599 -0.2986908l-0.3982544 -0.29599l-0.49508667 0l-0.29867554 -0.09954834l-0.09957886 -0.0995636l0 -0.39823914l0 -0.4951172l-0.09954834 -0.5946655l-0.19644165 -0.59736633l-0.49780273 -0.49510193l-0.09954834 -0.0995636l-0.19644165 -0.39823914l-0.09954834 -0.49510193l0 -0.6942444l0 -0.6942291l0 -0.6942291l0 -0.5973511l-0.1991272 -0.5946808l-0.29867554 -0.5946655l-0.19644165 -0.7937927l-0.39822388 -0.79377747l-0.8933716 -0.59736633l-0.29867554 -0.19642639l-0.29599 -0.0995636zm-215.04443 46.938553l1.5875854 0.3955536l0.6942291 0.39823914l0.19911194 0.19911194l2.87648 -0.29867554l0.69692993 0.5946655l0.49510193 0.6942291l-0.3955536 2.7796173l-0.19911194 2.8791656l-0.1991272 0.3955536l-0.19911194 0.39823914l-0.0995636 0l0 0.0995636l-0.19642639 0.5946655l-0.1991272 0.6942291l-6.9476776 0l0 -0.0995636l-2.7769165 -0.29867554l-0.59736633 -0.49510193l-0.29599 -0.7937927l-0.29867554 -1.0924683l0 -1.0897827l0.0995636 -2.0853882l0.19911194 -0.6942291l1.1893463 -1.5875702l2.381363 -1.4880219l1.0924683 -0.0995636zm-55.968918 -130.09814l26.197754 26.098198l-4.563614 4.9618683l-8.634827 10.418823l-7.6419067 11.01619l-6.8454285 11.61087l-2.9787292 6.0543213l-1.983139 4.1680756l-3.4738312 8.33345l-2.9760437 8.535263l-2.58049 8.634827l-2.0853882 8.831238l-1.5875702 8.831253l-1.1893463 9.03038l-0.59736633 9.030365l-0.19642639 4.466751l-36.91796 0l0.19911957 -5.6560974l0.7937927 -11.314865l1.3911514 -11.212616l1.9831314 -11.212631l2.680046 -11.01619l3.1751633 -10.817062l3.8693848 -10.61795l4.466751 -10.518402l2.3813705 -5.0614166l3.672966 -7.2436676l8.23658 -13.89267l9.326363 -13.198441l10.32196 -12.404655l5.556534 -5.8552094zm30.564941 30.564949l23.61728 23.61728l-3.57341 3.8693848l-6.745865 8.236588l-5.954773 8.734375l-5.260544 9.226807l-2.2817993 4.7654266l-2.6800537 6.0516357l-4.2649384 12.504211l-2.9787292 12.802902l-1.687149 13.098877l-0.19911194 6.5494385l-33.341873 0l0.29867554 -7.6419067l1.687149 -15.084702l3.075592 -14.88559l4.4640656 -14.387772l5.7556458 -13.992233l7.047241 -13.298004l8.336136 -12.703339l9.525482 -11.906845l5.16098 -5.556534zm264.95905 -30.664505l3.4738464 3.6702652l6.5494385 7.442795l6.1512146 7.7414627l5.855194 8.03746l5.459656 8.336151l4.9618835 8.535263l4.6631775 8.831238l4.1680603 9.03038l1.886261 4.5663147l3.374298 8.930801l5.45697 18.160309l3.769806 18.555847l1.9858398 18.854523l0.29867554 9.428619l-36.91797 0l-0.29599 -7.5423584l-1.5875854 -15.18425l-2.9787292 -14.88559l-4.364502 -14.487335l-2.6800537 -7.1441193l-1.5875549 -3.9689484l-1.7867126 -3.8720703l0.29867554 -0.6942291l0.29599 -0.3955536l0.3982544 -0.39823914l0.5946655 0.0995636l0.5946655 0.09954834l0.49780273 -0.09954834l0.39553833 -0.3982544l0.29867554 -0.39553833l0.1991272 -0.8933563l-0.09954834 -1.0924683l-0.29867554 -1.9831238l-0.1991272 -0.6942291l0 -0.1991272l-0.19644165 -0.1991272l-0.39822388 -0.19911194l-0.9929199 -0.8933563l-0.5946655 -0.5946655l-0.29867554 -0.3955536l-0.29599 -0.39823914l0 -0.0995636l0 -0.79377747l-0.49780273 -0.6942291l-0.4951172 -0.5946808l-0.4951172 -0.5973511l-0.5973511 -0.5946808l-0.39553833 -0.49510193l-0.1991272 -0.1991272l0 -0.19911194l-0.09957886 0l0 -0.6942291l-0.49508667 -0.5946808l-0.3982544 -0.49778748l-0.5946655 -0.4951172l-0.49780273 -0.49510193l-0.29599 -0.39823914l-0.1991272 -0.2986908l-0.09954834 0.0995636l0.09954834 -0.6942291l-0.19909668 -0.5946655l-0.29599 -0.5946808l-0.29870605 -0.5973511l-0.69421387 -1.0897827l-0.1991272 -0.29867554l-3.175171 -2.9760437l-0.49508667 -2.1849365l-2.6800537 -0.1991272l-4.8623047 -5.952072l0.29599 -2.0853882l-1.5875854 -0.19911194l0 -2.182251l-1.7866821 -1.0924835l-2.2818298 -0.19642639l-4.4640503 -4.8622894l-0.49780273 -2.6800537l-2.182251 0l0.29867554 -2.7796173l24.311493 -24.411057zm-26.098175 160.46399l0 0.5946655l-0.09957886 0.69692993l0.1991272 -0.5973816l0.29599 -0.39553833l-0.19644165 -0.1991272l-0.19909668 -0.09954834zm-7.44281 0.89334106l-1.5875854 0.09954834l-1.2915955 0.59469604l-0.5946655 0.39822388l-0.39822388 0.5946655l-0.29599 0.5946655l0.29599 0.7937927l0.5973511 0.6942444l1.4880371 0.5973511l2.5804749 0l0.29599 0.09954834l0.29867554 0.09957886l0.4951172 0l0.49780273 -0.29867554l0.39553833 -0.49780273l0 -0.5946655l-0.09686279 -0.59469604l-0.29867554 -0.9928894l-0.3982544 -0.6942444l-1.189331 -0.7937927l-0.7937927 -0.09954834zm-373.8213 -143.19704l-0.6942291 1.1893463l-0.29867935 0l-0.29868317 0.0995636l-0.29599 0.19911194l-0.19911957 0.1991272l-0.19911957 0l-0.099559784 0.0995636l-2.6773605 3.5707092l-5.0614185 7.2436676l-4.466751 7.442795l-3.8693905 7.6419067l-3.1751595 8.03746l-2.4809303 8.336136l-1.7867012 8.634827l-0.89334965 9.030365l-0.099559784 4.6631775l0.19911957 5.755661l1.48802 11.01619l2.580491 10.31926l3.1751595 9.824173l1.7867012 4.86499l3.5734005 9.724594l4.6631794 14.686462l2.0826893 10.222412l0.49780273 5.3573914l1.2888985 0.09957886l0.39823914 -2.879181l1.3884621 -5.357422l2.68005 -7.9378967l4.862301 -10.02327l5.7556496 -9.528183l9.824162 -14.091782l9.824158 -13.992233l5.8552094 -9.724594l2.58049 -4.9618683l1.8835754 -4.068512l3.1778488 -8.236572l2.4809265 -8.435699l1.7840118 -8.731689l0.49780273 -4.3672028l-1.1920319 -0.29599l-1.5875778 3.6702728l-4.4640656 6.5494385l-2.7796097 2.7796173l-6.449875 6.1511993l-13.198444 12.404648l-8.831249 10.023285l-5.0614204 7.144104l-4.068512 7.5423584l-2.9787292 8.137024l-0.7937927 4.267624l-0.6942291 4.466751l-0.8933487 4.267624l2.0853806 -27.984451l0.1964302 -5.3601074l-0.49510956 -10.717514l-1.9858208 -16.274033l-1.2889023 -10.717514l-0.39823914 -5.260544l-0.09687042 -10.319275l0.8933525 -7.4427795l1.0897789 -4.9618683l1.6871414 -4.762741l2.1822472 -4.5662994l1.3911514 -2.2818146l0.49510956 0.0995636l-0.19911957 -0.8933563l-0.29599 -1.5875854zm519.5988 0.6942291l-0.5973511 0.4951172l-1.3884888 1.4907074l0 0l1.4880371 -0.29867554l1.3911743 2.2818146l2.2817993 4.6631775l1.5875854 4.7654266l1.1920166 4.8623047l0.890625 7.542343l-0.09686279 10.319275l-0.49780273 5.260544l-1.2888794 10.717514l-1.9858398 16.274033l-0.49505615 10.717514l0.29595947 5.260544l2.0853882 28.084015l-0.9929199 -4.3671875l-0.5946655 -4.3671875l0 -0.0995636l-0.8933716 -4.267624l-2.8791504 -8.137024l-4.0684814 -7.5423584l-5.0614624 -7.144104l-8.930786 -9.923721l-13.098877 -12.504211l-6.5494385 -6.0516357l-2.7769165 -2.879181l-4.466797 -6.5494385l-1.5875244 -3.6702728l-1.1920471 0.29599l0.59732056 4.3672028l1.7840576 8.731689l2.480896 8.435699l3.078308 8.336136l1.8835449 3.9689484l2.5805054 5.0614166l5.954773 9.625046l9.824158 14.091797l9.724609 13.992218l5.8552246 9.627731l4.8623047 9.923721l2.6800537 7.9378967l1.2888794 5.45697l0.49780273 2.7796326l1.189331 -0.09957886l0.5973511 -5.3573914l2.0827026 -10.222412l4.566284 -14.686462l3.5707397 -9.627731l1.7866821 -4.8623047l3.2747192 -9.923721l2.5805054 -10.31926l1.4880371 -10.916641l0.09954834 -5.7556458l-0.09954834 -4.762741l-0.8933716 -9.030365l-1.6871338 -8.634827l-2.480957 -8.336136l-3.2747192 -7.9378967l-3.8693848 -7.7414703l-4.466736 -7.442795l-5.058716 -7.2436676l-2.6800537 -3.4738464l-0.09954834 -0.09686279l-0.099609375 -0.0995636l-0.19909668 -0.0995636l-0.39556885 -0.29867554l-0.19909668 0l-0.29870605 -0.0995636l-0.29595947 -0.4951172zm-357.34814 131.19061l0.29599 0.8933716l0.29867554 1.9831238l1.0924835 0l0.39553833 1.0924683l0.2986908 3.075592l-0.0995636 1.4880371l-0.1991272 2.4809265l-0.19911194 0.9929199l-0.6942291 0l-0.4951172 -0.09957886l-0.29867554 -0.09954834l-0.29599 -0.19644165l-0.0995636 -0.1991272l-0.0995636 -0.19909668l-0.09954834 -0.1991272l-0.1991272 -0.19644165l-0.29599 -0.09954834l-0.29867554 0l-0.1991272 0.1991272l-0.19911194 0.09686279l-0.09687805 0.09954834l-0.29867554 0.5973816l-0.1991272 0.7937622l-0.19911194 0.7937927l0 0.7937927l0.0995636 0.7937927l0.49780273 0.6942444l0.09954834 0l3.175171 0.29867554l3.4711456 0.5946655l0.0995636 -0.1991272l0.09954834 -0.09954834l0 -0.09957886l0 -15.480225l-5.3574066 -0.59469604zm8.137024 14.288239l0 0.29867554l-0.6942291 0.4951172l-0.1991272 0.7964783l0 0.5946655l0.3955536 0.39553833l0.7937927 0.1991272l0.99290466 0.09957886l0.59736633 -0.4951172l0.09686279 -0.7937927l0 -0.49780273l-0.6942291 -0.89334106l-0.5946655 -0.1991272zm-51.10663 9.528168l0.0995636 0.09954834l0 0.09957886l-0.0995636 -0.09957886l0 -0.09954834zm316.5608 8.435699l-0.39553833 0.09954834l-1.4880371 0.19644165l-1.3911438 0.7937927l-0.4951172 0.39822388l1.3884583 2.0827026l0.49780273 -0.39553833l0.89334106 -0.49780273l0.8933716 -0.09686279l1.9831238 -0.29870605l-0.09954834 -0.5946655l-0.09957886 -0.39822388l-0.5946655 -0.7937927l-0.39553833 -0.1991272l-0.29867554 -0.09954834l-0.29870605 0l-0.09954834 -0.19644165zm-128.11234 -1.3911438l0 0.09954834l0 0.09957886l-0.39553833 1.4880066l0.09686279 0.9929199l0.1991272 0.69421387l0.09954834 0.1991272l0.4951172 0.5946655l0.49780273 -0.4951172l0.89334106 -0.69421387l1.3884583 -0.1991272l0.5946655 0.1991272l0.49780273 0.29599l0.29599 0.39822388l0.09957886 0.1991272l0.09954834 0.09957886l0 0.5946655l0.29867554 0.39553833l0.39556885 0.29867554l0.49780273 0.1991272l0.5946655 0.19644165l1.0924683 -0.09689331l0.5946655 -0.29867554l0.1991272 0.09957886l0.19641113 0.19909668l0.29867554 0.39556885l0.3982544 0.9928894l-0.09954834 0.8933716l-0.09957886 0.09954834l-0.29867554 0.19644165l-0.5946655 0.09954834l-0.6942444 0l-0.69421387 -0.09954834l-0.49780273 -0.19644165l-0.29599 -0.1991272l-0.09954834 -0.09954834l-0.09957886 -0.4951172l-0.1991272 -0.39822388l-0.39553833 -0.39556885l-0.49780273 0l-0.7937927 0.19644165l-0.29867554 0.49780273l-0.4951172 0.39553833l-1.189331 0.1991272l-0.49780273 -0.09954834l-0.4951172 -0.39556885l0 -0.09954834l0 -0.49780273l-0.19909668 -0.4951172l-0.09957886 0l0 -0.09954834l-0.4951172 -0.1991272l-0.5973511 -0.09954834l-1.7839966 -1.6844482l0.09686279 -0.8933716l0.09954834 -0.89334106l0.09957886 -0.7937927l0 -0.7937927l0.09954834 -0.09954834l0.29867554 -0.1991272l0.4951172 -0.1991272l0.5946655 -0.09954834zm3.7698364 -59.838318l-1.8835754 5.8552094l-3.5733948 9.724594l-3.6702576 8.037476l-4.267639 7.542328l-2.5805054 3.8694153l-2.8791504 4.466736l-4.9618835 6.7485657l-2.1822205 2.4809265l-2.2818298 2.2817993l-3.772522 2.3813782l-2.8764648 0.89334106l-1.5875854 0.09957886l3.075592 0l0 0.09954834l-0.09954834 3.175171l0.09954834 0.69421387l0.4951172 0.9929199l2.2844849 3.3742676l3.0756226 4.663208l2.4809265 4.2676086l11.61084 0l7.343231 -0.09954834l12.89978 -0.7937927l5.855194 -0.89334106l0.09957886 0l6.9476624 -1.0897827l7.0445557 -1.2915955l0.3982544 -0.4951172l0.39553833 -0.49780273l0.6942444 -0.9928894l0.29867554 -1.0897827l0.39553833 -1.7867126l0.9929199 -2.3813782l0.5946655 -1.0924683l0.7964783 -0.7937927l0.6942444 -0.5946655l0.89334106 -0.09954834l5.6560974 0l0.09954834 -0.09957886l0.89334106 -0.49508667l0.8906555 -1.3911743l0.09957886 -0.7937622l0.09954834 -0.59469604l-0.09954834 -0.49508667l1.6871338 -0.1991272l0.49780273 1.3884583l0.39553833 0l0.49780273 0.09954834l1.4880371 0.09957886l0.7937927 0l0.7937927 -0.09957886l0.29599 0l0.29867554 -0.09954834l0.39822388 -0.1991272l0.29599 -0.29599l0.29867554 -0.5946655l0.4951172 -0.49780273l0.1991272 -0.1991272l0.1991272 -0.09686279l0.09954834 0l0.19644165 0.09686279l0.7937927 0.29867554l0.7964783 -0.19909668l0.7937927 -0.19644165l0.7937622 -0.39822388l1.4880371 -0.7937927l0.39553833 -0.1991272l0.29867554 -0.1991272l0 -0.29599l0.09957886 -0.09954834l0.09954834 -0.09957886l0.29599 -0.09954834l0.7937927 -0.09954834l0.9929199 -0.09957886l1.9858093 0.09957886l0.5946655 0.09954834l0.4951172 0l0.89334106 -2.6800537l-0.09954834 -0.29599l-0.4951172 -0.5946655l-1.4880066 -1.886261l-0.6942444 -0.9929199l-0.69421387 -0.7937927l-0.3982544 -0.29867554l-0.29867554 -0.29599l-0.09686279 -0.09954834l-0.1991272 -0.09957886l-0.09954834 -0.09954834l-0.29870605 -0.09954834l-0.09954834 0l-0.19644165 -0.09957886l-0.29867554 -0.19641113l-0.69421387 -0.49780273l-0.7937927 -0.39556885l-0.6942444 -0.49777222l-0.7937927 -0.29599l-0.29867554 -0.1991272l-0.49508667 0.09954834l-0.09957886 0l-0.09954834 0.09957886l-0.8933716 -0.3982544l-1.0924683 -1.3884583l-0.29599 -0.7937927l-0.29867554 -1.7867126l0 -0.49780273l0 -0.19641113l-1.2888794 -3.078308l-0.09957886 -0.7937622l-0.49780273 -0.8933716l-0.49508667 -0.99020386l-0.6942444 -0.8933716l-0.6942444 -0.7937622l-0.6968994 -0.5973816l-0.29599 -0.19641113l-0.3982544 -0.1991272l-0.29599 0l-0.39822388 -0.29867554l-0.4951172 -1.0897827l-0.09954834 -0.5973816l8.632111 0l-3.075592 -1.9831238l-5.5565186 -4.3671875l-4.6658936 -4.563614l-3.769806 -4.961853l-1.3884888 -2.5805054l0 -0.09954834l-0.09954834 0l-0.7937927 -1.5875854l-0.09954834 0.0995636l-1.0924683 -0.29867554l-4.8623047 -0.2986908l0.09954834 0l-2.8764648 -0.09686279l-3.5733948 -0.59736633l-4.267639 -0.6942291l-4.7627563 -0.99290466l-6.3503113 -1.3884583l-4.0711975 -0.7937927zm138.53384 82.76404l-0.09954834 0.09686279l0 -0.09686279zm0 -2.779602l-0.5946655 0.39553833l-1.5875854 0.8933716l0.1991272 0.49777222l0 0.1991272l0.09954834 0.19644165l-0.89334106 -0.89334106l0.39553833 1.6871338l-1.189331 0.29867554l0.09686279 0.5946655l0.29870605 0.9929199l0.29867554 0.7937927l0.09954834 0.39822388l0.09686279 0.19644165l0 0.09954834l0 0.09957886l0.09957886 0.7937622l2.5804749 -0.9928894l-0.29599 -0.5946655l-0.1991272 -0.7937927l-0.19909668 -0.7937927l0.39822388 0.1991272l0.4951172 0l0.5946655 -0.09957886l-0.29599 -1.4880066l0.19644165 -0.09957886l0 -0.29867554l-0.09957886 -0.7937927l-0.29599 -0.7937927l-0.29867554 -0.69421387zm-8.632111 8.037445l-0.3982544 1.1920471l-0.29599 -0.5973511l0 0.89334106l0.19644165 0.9929199l0.09954834 0l0.09954834 0.09954834l-0.29867554 -0.09954834l-0.39553833 0l-0.7937927 0.29867554l-0.6942444 0.49508667l-0.5973511 0.59469604l-0.29599 0.6968994l-0.1991272 0.7937927l0 0.6942444l0.09957886 0.69421387l0.29867554 0.5946655l0.19641113 0.29870605l0.49780273 0.19909668l0.39556885 -0.09954834l0.39822388 -0.29867554l0.29599 -0.1991272l0.69692993 -0.29599l0.4951172 -0.29867554l0.29867554 -0.4951172l0.19644165 -0.5973511l0.09954834 -0.8906555l0 -0.8933716l-0.1991272 -0.5973511l0.29867554 0.3982544l0.49780273 0.19909668l0.5946655 0.09689331l0.39556885 -2.0827026l-0.09957886 -0.1991272l-0.09686279 -0.29599l0 -0.39822388l0.09686279 -0.6942444l-1.8835449 -0.1991272zm-365.8834 16.871399l0 0.59469604l0 2.779602l1.6871414 0l0 2.8764648l2.58049 0l-0.29868317 -4.3671875l-1.6871414 -0.5946655l0 -1.2889099zm-106.1822 -129.9017l-1.2888994 0.29867554l-0.099559784 0.2986908l-1.2915907 2.7769165l-1.8835697 5.7556458l-2.1849406 8.831253l-1.2888998 5.8552094l0 0.0995636l-0.6942299 3.772522l-0.79379004 7.7387695l-0.099560104 7.841034l0.3955496 7.7387695l1.3911506 11.61087l3.2747202 14.88559l1.9831295 7.047241l1.48802 4.364502l3.8720808 8.336121l4.9618597 7.7414856l5.6560917 7.5423584l9.1299305 11.013489l8.831249 11.016205l5.16098 7.542328l2.2818108 3.9689636l0 0.09954834l2.97604 2.2818298l-0.29599 -1.4880371l-0.5973587 -4.3671875l-0.7937927 -8.930817l0 -8.831238l1.0924721 -8.634827l1.0924721 -4.1680603l3.8693886 -13.198456l5.954769 -19.747864l3.3742828 -13.494446l1.2888947 -6.848114l1.9858246 -10.916626l2.0826874 -16.968277l0.29868317 -11.115753l-0.49780273 -5.257843l-1.1893387 -0.0995636l-1.3884583 5.556534l-2.6800537 8.03746l-2.3813667 4.961853l-1.3911514 2.3813782l-5.8552094 9.030365l-7.9379005 14.490021l-4.4640617 9.923737l-3.4738388 10.418823l-2.0853806 10.61795l-0.39554977 8.137024l0.29599 5.459656l0.6969185 5.6560974l1.3884621 5.5565186l0.8933487 2.879181l-1.3911514 -3.6729736l-2.0826874 -7.6419067l-2.3813705 -11.8072815l-1.886261 -7.9405823l-1.48802 -5.357422l-3.9689503 -10.418823l-6.9476814 -15.283844l-4.364499 -10.222382l-2.0853806 -5.1582947l-3.2747202 -10.518387l-1.5875807 -8.139709l-0.49510956 -5.556534l0 -5.7556458l0.5946703 -5.954773l0.49510956 -3.0756073l0.19911957 -0.99290466zm580.62915 0l0.19909668 0.99290466l0.5946655 3.0756073l0.4951172 5.954773l0 5.7556458l-0.4951172 5.656082l-1.4880371 8.137024l-3.3742676 10.521088l-1.9857788 5.1582794l-4.4641113 10.122833l-6.8480835 15.283844l-3.968933 10.418823l-1.5875854 5.357422l-1.7867432 7.9405823l-2.480896 11.8072815l-2.0853882 7.6419067l-1.2888794 3.6729736l0.89331055 -2.779602l1.2889404 -5.6560974l0.7937622 -5.556549l0.19909668 -5.559204l-0.3955078 -8.137024l-2.0853882 -10.61795l-3.473877 -10.319275l-4.4640503 -10.023285l-7.9405518 -14.390457l-5.7556763 -9.129929l-1.4880371 -2.2818146l-2.2817993 -5.0614166l-2.6800537 -8.03746l-1.3884277 -5.556534l-1.291626 0.0995636l-0.4951172 5.3574066l0.29870605 11.01619l2.0827026 16.968277l1.9857788 10.916626l1.3884888 6.848114l3.3742676 13.494446l5.954773 19.747864l3.8693848 13.198456l1.0924683 4.1680603l0.9929199 8.634827l0 8.930817l-0.7937622 8.831238l-0.5973511 4.3671875l-0.19915771 1.5875854l2.8791504 -2.3813782l0.099609375 -0.09954834l2.182251 -3.9689636l5.260498 -7.542328l8.831299 -11.016205l9.030334 -11.013489l5.656128 -7.44281l4.961853 -7.841034l3.968933 -8.236572l1.3911743 -4.364502l2.0826416 -7.1467896l3.175171 -14.88559l1.4907227 -11.61087l0.39556885 -7.7387695l-0.19915771 -7.7414703l-0.69421387 -7.838333l-0.69421387 -3.772522l-1.2889404 -5.954773l-2.1849365 -8.831253l-1.9830933 -5.7556458l-1.1920776 -2.7769165l-0.09954834 -0.1991272l-1.3884277 -0.39823914zm-462.5374 140.12143l0 0.1991272l-0.09955597 -0.09957886l-1.1920319 0.29867554l0 0.39556885l0.19911957 0.09954834l1.3884583 3.5733948l0.8933563 1.9831543l1.7866974 2.4809265l2.9760437 2.779602l1.3911438 -2.4809265l-1.7866974 -3.5733948l-1.3884583 -1.0897827l-1.0924683 -3.078308l-3.0756073 -1.4880066zm52.096848 13.497131l1.1920319 0.29867554l2.182251 1.4880066l0.7937927 0.9929199l0.49778748 0.69421387l0.5946808 0.59469604l-2.2818146 2.2817993l-2.2845001 -2.3813782l-2.0826874 -2.3813782l0.0995636 -0.49508667l0.09954834 -0.49780273l0.6942291 -0.4951172l0.4951172 -0.09954834zm88.61926 23.617249l-0.29867554 0.1991272l-1.2889099 1.0924683l-1.1920471 1.0897827l1.2915955 0.89334106l1.9831543 1.4880371l1.4880066 -2.0827026l-0.6942444 -0.49508667l0.3982544 -0.29870605l-0.89334106 -0.89334106l-0.7937927 -0.9929199zm15.281128 15.579834l-0.1991272 0.7937927l-0.29599 -0.4951172l-0.7937927 1.7866821l0.9929199 0.4951172l-0.1991272 0.29867554l1.7867126 1.886261l1.4880066 -1.5875854l1.189331 -1.1920166l-1.5875549 -0.7937927l-1.4880371 -0.7937927l0.1991272 -0.39822388zm-108.86226 10.817047l0.2986908 0.9929199l0.0995636 0.09954834l1.5875702 2.480957l0.1991272 2.182251l2.381363 0.69421387l0.9929199 1.590271l2.4809265 -1.3911438l-1.2915955 -3.4738464l-3.075592 -2.5777893l-3.6729736 -0.5973816zm358.54016 -120.76907l-0.09954834 0.39553833l-2.779602 6.2534485l-4.0685425 13.198456l-2.7769165 13.793091l-1.8862305 14.091797l-1.8862915 21.435028l-2.182251 21.2359l-2.182251 13.89267l-1.5875244 6.7485657l-0.79382324 2.8791504l-2.2844849 5.556549l-4.168091 8.236572l-2.4809265 5.6560974l-0.7937927 2.082672l0 0l1.6871643 -1.3884583l5.855194 -4.2676086l12.703308 -8.336151l13.298035 -8.433014l13.295288 -8.933502l6.3530273 -4.762726l6.0516357 -4.8623047l11.016174 -10.418823l7.3432617 -8.634827l4.3671875 -6.1512146l3.8693848 -6.4498596l3.3742676 -6.947693l1.4880371 -3.5733948l1.7866821 -5.357422l2.5805054 -11.312164l1.189331 -11.809998l0.09954834 -11.909546l-0.3955078 -5.952057l-1.1920776 0l-0.29595947 3.1751404l-1.291626 6.1512146l-1.8862305 5.855194l-2.5778198 5.556549l-4.765442 7.9405823l-7.838318 9.923706l-4.3671875 4.7627563l-9.129944 9.425903l-13.793091 14.290924l-8.236572 10.023285l-3.473877 5.3573914l-2.3813477 3.772522l-5.1610107 7.1441345l-2.8764648 3.2747192l1.9831543 -3.2747192l1.8862305 -3.4738464l2.0853882 -4.961853l3.175171 -10.219727l1.6871338 -10.518402l0.39556885 -10.717499l-0.39556885 -5.3601074l-0.8933716 -6.7485657l-2.6799927 -13.198425l-2.5805054 -13.098877l-0.8933716 -10.023285l0.19915771 -6.8454285l0.49505615 -3.4738464l0.099609375 -0.69421387zm-468.09662 0l0.0995636 0.69421387l0.39823914 3.4738464l0.19911957 6.8454285l-0.8933487 10.023285l-2.58049 13.098877l-2.6800537 13.198425l-0.7937889 6.7485657l-0.39823914 5.3601074l0.29867935 10.717499l1.7867012 10.518402l3.0755997 10.219727l2.1849403 4.961853l1.7840118 3.4738464l1.985817 3.2747192l0 0l-2.8791656 -3.2747192l-5.1582947 -7.1441345l-2.281807 -3.772522l-3.5734024 -5.3573914l-8.23658 -10.023285l-13.79311 -14.290924l-9.129932 -9.425903l-4.3671913 -4.7627563l-7.838339 -9.923706l-4.7654314 -7.9405823l-2.4809303 -5.556549l-1.9831295 -5.855194l-1.1920304 -6.1512146l-0.2959895 -3.1751404l-1.2915905 0l-0.3955496 5.952057l0.09686929 11.909546l1.2915906 11.809998l2.4809303 11.312164l1.88626 5.357422l1.3884602 3.5733948l3.37428 6.947693l3.8693905 6.4498596l4.3671894 6.1512146l7.343231 8.634827l11.113062 10.418823l5.954769 4.8623047l6.350319 4.762726l13.298004 8.933502l13.397556 8.433014l12.703331 8.336151l5.7556534 4.2676086l1.7840118 1.3884583l-0.89066315 -2.082672l-2.4809265 -5.6560974l-4.071205 -8.236572l-2.3813705 -5.556549l-0.7937851 -2.8791504l-1.4880219 -6.7485657l-2.281807 -13.89267l-2.182251 -21.33548l-1.886261 -21.434998l-1.886261 -13.992249l-2.7769241 -13.793091l-4.0711975 -13.198456l-2.6773605 -6.2534485l-0.19911957 -0.39553833zm117.49707 86.03607l5.1582947 4.8623047l10.916626 8.933502l11.610855 7.9378967l12.3050995 6.9476624l6.3503113 3.0756226l-0.09686279 0.09954834l0.5946655 0.29599l7.9378967 3.4738464l16.473175 5.459656l16.77182 3.8693848l17.16742 1.9831238l8.731689 0.29867554l0 36.915283l-5.45697 -0.09954834l-11.016205 -0.6942444l-10.814392 -1.3884583l-10.717499 -1.886261l-10.620636 -2.3813782l-10.518402 -3.075592l-10.31926 -3.5733948l-10.1228485 -4.1680603l-5.0614166 -2.2818298l0.0995636 0l-0.6942291 -0.29867554l-7.442795 -3.7698364l-14.586899 -8.435699l-13.696243 -9.525482l-12.899765 -10.717499l-6.153885 -5.7556458l26.100891 -26.100891zm120.27399 -284.11224l7.343231 0.19911957l14.586914 1.5875778l14.487335 2.9760437l14.091797 4.168068l6.848114 2.6800537l0.5946655 0.29867554l4.961853 2.082695l4.961853 2.3813705l-0.09954834 0.09955597l0 0.0995636l-0.09954834 0.09955597l-0.39556885 0.0995636l-0.39822388 0.19642639l-0.19644165 0.29868317l-0.1991272 0.29868317l-0.09954834 0.49510956l-0.09954834 0.5946655l0 1.1920319l0.09954834 0.39554596l0.09954834 0.49780273l2.2818298 0l1.6871338 0.19911957l0.09954834 0.19643402l0.09957886 0.19911957l0.09954834 0.39823914l0.09954834 0.6942291l0 0.29599l0 0.6969223l0.6942444 -0.0995636l0.89334106 0.0995636l1.3884583 0.9902191l0.4951172 0.6969147l0.3982544 0.89066315l0.19909668 0.6969223l0.09957886 0.6942291l0 0.19911957l-0.1991272 0.6942291l0.1991272 0.49510956l0.39553833 0.39823914l0.3982544 0.19643402l0.19641113 0l0.09957886 0.09955597l0 1.786705l-0.29599 1.886261l0 -0.0995636l-0.09957886 0.3955536l0.09957886 0.39823914l0.19641113 0.29867554l0.29867554 0.19642639l0.4951172 0.39823914l0.69692993 0.2986908l1.2889099 0.6942291l0.69421387 0.6942291l0.1991272 0.29599l0 0.7964783l-0.09954834 0.7937927l-0.09957886 0.9902191l-0.29867554 0.89334106l-0.19644165 0.6942291l-0.19909668 0.2986908l-0.09957886 0.19911194l-0.09954834 0l-0.09957886 0.1991272l-0.19641113 0.19642639l-0.09957886 0.29867554l0.19644165 0.4951172l0.1991272 0.0995636l0.29867554 0.19911194l0.29599 0.1991272l0.29867554 0.29599l0.29867554 0.19911194l0.09957886 0.0995636l0 0.0995636l-0.09957886 0.49510193l0.1991272 0.49780273l0.29599 0.29599l0.29867554 0l0 0.0995636l0 0.0995636l0.09957886 0.49778748l0.39553833 3.471161l0.29867554 1.886261l0 0.49510193l4.068512 0.2986908l0.09954834 -0.5946808l0.1991272 -0.6942291l0.6942444 -0.49780273l0.7937927 -0.49510193l1.0897827 -0.1991272l1.0924683 -0.19911194l0.9928894 -0.0995636l0.8933716 0.0995636l0.29599 0l1.1920166 0.5973511l2.182251 2.0827026l0.89334106 1.1920166l0.6942444 1.2889099l0.5973511 1.0924683l0.29599 0.99290466l0.09954834 0.3955536l0 0.1991272l-0.19909668 0.19911194l-0.19644165 0.19642639l-0.39822388 0.0995636l-0.6942444 0.1991272l-0.29867554 0.09954834l-0.5946655 0l0.09954834 1.7867126l-6.9476624 6.944977l-0.39556885 -0.19911194l-0.49780273 -0.19642639l-0.39553833 0l-0.4951172 0.09954834l-0.09954834 -0.5973511l-0.09957886 -0.8933563l0 -1.3884583l0.09957886 -0.6942291l0.19641113 -0.19911194l0.49780273 -0.1991272l0.39556885 -0.09686279l0.29867554 -0.0995636l0.29867554 0l0.09954834 0.0995636l0.19644165 0l0 0.09686279l0.39822388 0l0.09957886 -0.09686279l0.09954834 0l0.09686279 -0.0995636l0.09957886 -0.0995636l0 -0.0995636l0 -0.0995636l0.09954834 0l0 -0.09954834l0 -0.1991272l-0.09954834 0l0 -0.29599l-0.19644165 -0.0995636l-0.29867554 -0.49778748l-0.39822388 -0.6942291l-1.1893616 -1.687149l-1.5875854 -1.9831238l-1.6871338 -1.9858246l-1.5875854 -1.6871338l-0.69421387 -0.5946808l-0.7937927 -0.49510193l-0.29867554 -0.1991272l-0.3982544 0l-0.39553833 -0.0995636l-0.3982544 0.1991272l-0.49508667 0.19642639l-1.4880371 -0.19642639l-0.7937927 -0.39823914l-0.69421387 -0.4951172l-0.5973816 -0.49778748l-0.29599 -0.5946808l0 -0.49510193l-0.09954834 -0.59736633l-0.29867554 -0.5946655l-0.39553833 -0.6942291l-0.49780273 -0.6942291l-1.1893616 -1.391159l-1.4906921 -1.4880219l-2.9760437 -2.677353l-0.9929199 -0.7937927l-0.09954834 -0.0995636l-0.29599 -0.19911194l-1.0924683 -0.49780273l-0.5946655 -0.19642639l-0.6942444 -0.0995636l-0.7937927 0.1991272l-0.39822388 0.6942291l-0.39556885 0.89334106l-0.29867554 0.7937927l-0.09954834 0.4951172l0.19909668 0.5946655l0.29599 0.49780273l0.5973816 0.29599l0.5946655 0.19911194l0.5946655 0l0.3982544 -0.19911194l0.19909668 -0.09687805l0.19644165 0l0.39822388 0.3955536l1.2889099 1.2888947l1.2915955 1.1920319l0.39553833 0.5946808l0.1991272 0.39823914l0.09954834 0.29599l-0.09954834 0.19911194l-0.89334106 0.99290466l-1.189331 0.5946808l-0.7937927 0.29867554l2.182251 2.58049l2.082672 0l0.3982544 3.4738464l0.29599 0.19642639l0.29867554 0.0995636l0.9929199 0.6942291l1.0924683 0.7937927l0.5946655 0.89334106l0.09954834 0.39823914l0 0.3955536l-3.2747192 -2.4809265l-6.648987 -4.4640656l-3.5734253 -1.9858246l0.09957886 -0.49510193l-0.09957886 -0.39823914l0 -0.0995636l0 -0.29599l0.09957886 -0.0995636l0.09954834 -0.0995636l0.1991272 -0.09954834l0.5946655 0l0.6942444 0.6942291l0.19909668 0.29867554l2.9760437 -0.29867554l0.5973816 -2.7769165l-3.4738464 -2.7796173l-3.078308 0l-0.09686279 0.5946655l0 0.0995636l-0.1991272 0.39823914l-0.09954834 0.0995636l-0.1991272 0.09686279l-0.29599 -0.09686279l-0.7937927 -0.39823914l-0.29867554 -0.0995636l-0.29867554 -0.0995636l-0.69421387 -0.0995636l-0.7937927 0l-0.4951172 0.49780273l-0.29867554 0.5946808l0 0.5946655l0 0.59736633l0.09954834 0.5946655l-4.5663147 -2.2818146l-4.6631775 -1.9858246l-3.968933 -1.5875702l-8.236603 -2.6800537l-8.336121 -2.182251l-8.535278 -1.5875854l-4.264923 -0.49778748l-0.49780273 0.5973511l-0.39556885 0.3955536l-0.69421387 0.59736633l-0.5973511 0.49510193l-1.2889099 1.0924683l-1.4880371 1.0897827l-1.0924683 0.59736633l-1.0924683 0.79377747l4.9618835 0.3955536l9.724579 1.3884583l9.528168 2.1849518l9.425934 2.9760284l4.5663147 1.886261l5.6560974 2.3813782l5.45697 2.779602l-0.09957886 -0.0995636l0.3982544 0.29599l0.39822388 0.1991272l4.464081 2.4809265l8.535248 5.6560974l4.068512 3.0782928l0.29599 0.6942291l1.0924683 1.189331l0.7937927 0.39823914l0.09954834 0l0.7937927 0.0995636l0.7937927 0.6942291l0.89334106 0.7937927l0 2.2818146l0.7937927 -0.1991272l0.7937927 0l1.1920471 0.69692993l0.7937927 0.6942291l0.49508667 0.79377747l-3.8693848 3.8694l2.8764954 1.6871338l2.779602 1.7866974l2.5804749 -2.6800385l0.1991272 0.19911194l0.19644165 0.1991272l0.39822388 0.49510193l0.7937927 0.6942291l0.5946655 0.2986908l0.59469604 0.09954834l0.7937622 0.9902191l0.8933716 0.8933563l-0.29599 0.39823914l0 0.29867554l0 0.8906708l0.19641113 0.6969147l0.3982544 0.49510193l0.5946655 0.2986908l0.7937927 0l0.69421387 -0.1991272l0.69692993 0.8933563l0.09686279 1.0897827l0.29870605 1.1920319l0.89334106 0.5946655l0.7937927 0.5973511l0.5946655 0l0.29867554 0.4951172l0.3982544 0.49510193l3.8693848 2.9787445l7.6419067 6.449875l3.7698364 3.3742828l-1.0924683 -1.886261l-0.9929199 -1.886261l0.09954834 -0.09687805l0.1991272 0l0.3982544 -0.19911194l0.49508667 0l0 0.5946655l0.8933716 -0.7937927l0.29867554 0l0 -0.29867554l0 -0.0995636l0.09686279 -0.09686279l0 -0.1991272l-0.09686279 -0.19911194l0 -0.0995636l-0.1991272 -2.182251l-1.9858093 -1.2915955l-0.6942444 -2.9760284l-0.5946655 0.19911194l-0.3982544 0l-0.89334106 0.3955536l-0.4951172 0.19911194l-0.49508667 0.4951172l-0.09957886 0.29867554l-0.09954834 0.39823914l-1.886261 -2.9787292l-2.0827026 -2.87648l0 -0.0995636l0.29599 -0.5946655l0.29867554 -1.1920319l-0.19909668 -0.49510193l-0.29599 -0.49780273l-0.8933716 -0.6942291l-0.5973511 -0.1991272l-0.89334106 -0.29599l-0.19644165 -0.09954834l-0.09954834 -0.2986908l-0.29867554 -0.99290466l0 -0.0995636l-0.29867554 -0.7937927l-1.1893616 -1.189331l-0.69421387 -0.2986908l-0.7937927 -3.1751556l-1.886261 1.0924683l-0.9929199 -1.0924683l-0.9929199 -1.0924683l0.8933716 -2.7769165l-0.7937927 -0.0995636l-0.39556885 -0.19911194l-0.29867554 -0.3955536l5.8552246 -5.8552094l1.7866821 1.3884583l1.3884888 1.6871338l0.49777222 0.8933563l0.39556885 0.7937927l0.09954834 0.29867554l0.09957886 0.19642639l0 0.0995636l-0.09957886 0.39823914l0.09957886 0.3955536l0.29867554 0.29867554l0.19641113 0.1991272l0.5973816 0.09954834l0.49508667 0.09687805l1.1893616 0.0995636l0.39822388 -0.0995636l0.4951172 0l0.09954834 -0.4951172l0.1991272 -1.0924683l0.3982544 -0.5946655l0.39553833 -0.29867554l1.0924683 0l0.4951172 0.29867554l0.29867554 0.29867554l0.09954834 0.0995636l0.59469604 2.7769165l0.29867554 1.391159l0 0.09686279l1.189331 2.0853882l1.6871338 1.7866974l2.2818298 -0.1991272l0.5973511 1.1920319l2.7769165 0.4951172l1.2915955 1.3884583l1.189331 1.5875702l0.09954834 0.1991272l0.29870605 0.19911194l0.29599 0.0995636l0.29867554 0.0995636l0.5946655 0.09686279l0.69421387 0.0995636l1.3911743 0l0.5946655 0.0995636l0.29867554 0l0.5946655 0.19911194l0.5946655 0.3982544l0.49780273 0.39553833l0.19644165 0.4951172l0 0.0995636l0.6968994 1.5875702l0.89068604 1.391159l0.19909668 0.19642639l0.1991272 0l0.29867554 0.0995636l0.8933716 0.29867554l0.49508667 0.1991272l0.39556885 0.19642639l0.19909668 0.29867554l0.09957886 0l0.4951172 1.5875854l0.7964783 1.3911438l0.09686279 0.09687805l1.9858093 1.5875702l0.1991272 2.2845001l2.4809265 0.19642639l0.5946655 2.58049l4.563629 -0.19642639l2.2845154 -1.590271l0.5946655 -0.39553833l0.5946655 -0.3982544l0.9929199 2.3840637l0.89334106 2.2818146l2.5804749 6.8454285l4.168091 13.994919l2.8764648 14.288223l1.4880371 14.490036l0.29867554 7.2436676l-4.267639 0l1.0924683 1.886261l0.89334106 1.7839966l0.59469604 1.2915955l0.5946655 1.189331l1.0924683 0l0 1.1920471l-0.09957886 1.189331l0.29867554 0.49780273l0.1991272 0.5946655l0.9902344 0.09957886l1.1920166 0.29867554l0.9929199 0.39553833l1.7867126 1.3884583l0.69421387 0.7964783l0.19644165 -3.177826l0.09954834 -3.2747498l36.91797 0l-0.1991272 5.6560974l-0.69421387 11.215332l-1.3911743 11.016174l-1.9831238 11.013489l-2.5804749 10.817078l-3.175171 10.717529l-3.772522 10.518372l-4.267639 10.32196l-2.3813477 5.061432l-3.7698364 7.4427795l-8.336151 14.18866l-9.425903 13.397583l-10.421539 12.703308l-5.7556458 6.0516663l-25.998627 -26.098206l4.6631775 -5.061432l8.831238 -10.717499l7.841034 -11.411743l6.944977 -12.006409l3.078308 -6.2534485l2.082672 -4.464081l3.6729736 -9.329041l3.075592 -9.428619l2.5805054 -9.6250305l1.0897827 -4.8623047l-0.09689331 0.39553833l-0.09954834 0.29870605l-1.4880066 4.566284l-3.9716492 9.525482l-5.7556458 10.717529l-7.639221 12.800201l-4.765442 7.3459167l-3.471161 5.8525085l-7.542328 11.215332l-4.168091 5.257843l-4.466736 6.1538696l-8.037476 10.717529l-7.4427795 9.030365l-7.0445557 7.5423584l-3.4738464 3.3742676l-0.7937927 0.7937927l-0.7937622 0.6942444l5.954773 -4.168091l11.411713 -9.229492l5.357422 -5.0614014l26.098206 26.100891l-5.6560974 5.3573914l-12.006409 10.023285l-12.60376 9.030365l-13.298004 8.037476l-6.9450073 3.5733948l-5.2605286 2.5805054l-10.61795 4.6631775l-10.916626 4.068512l-11.113068 3.3742676l-11.312164 2.779602l-11.414459 2.182251l-11.5112915 1.3911743l-11.608154 0.8906555l-5.8552246 0.09954834l0 -36.915283l5.6560974 -0.19909668l11.312164 -0.8933716l11.2126465 -1.6871338l11.016174 -2.4809265l5.45697 -1.5875854l3.2747192 0.9929199l1.1920471 3.672943l2.3813477 -0.29867554l1.2915955 -1.0924683l5.1582947 -0.19641113l2.5804749 -2.3813782l2.7796326 -0.49780273l10.120148 -8.632141l0 0l-0.4951172 0.29599l-0.4951172 0.1991272l-0.9928894 0.4951172l-1.5875854 0.29867554l-0.49780273 0l-0.5946655 0.09954834l0.5946655 0l0.1506958 -0.048431396l0 0l-0.05114746 0.048431396l-0.69421387 0.29870605l-0.8933716 0.39553833l0 0l0.09957886 -0.09957886l0 0l-2.0827026 1.0924988l-4.8623047 1.6871338l-8.040131 1.6871338l-5.9520874 0.69421387l-4.5663147 0.39556885l-4.6631775 0.09954834l-3.4738464 -0.09954834l-6.7485657 -0.39556885l-3.2747192 -0.49508667l-5.954773 0.99020386l-12.105957 1.1920471l-6.1512146 0.19909668l0 -8.930786l-3.2747192 -1.3911743l-3.177826 -1.3884583l0 11.61087l-8.137024 -0.29867554l-16.274048 -1.886261l-15.878479 -3.5707092l-15.380707 -5.061432l-7.542343 -3.2747192l-0.5946808 -0.29867554l-6.2534485 -2.9760437l-12.105972 -6.7485657l-11.411743 -7.741455l-10.717499 -8.731689l-5.061432 -4.7627563l3.772522 -3.8720703l0.19644165 0.3982544l0.09954834 0.39822388l0.1991272 1.189331l0.6942291 1.3884583l0.49780273 0.3982544l0.9902191 0.1991272l0.39823914 -0.09957886l-0.29867554 0l12.404648 -0.19909668l4.267624 -3.6729736l10.717514 -0.19644165l1.0924683 -0.09954834l1.5875854 -0.89334106l0.49510193 -0.5946655l0.2986908 -0.7937927l0.19642639 -1.5875854l-0.09687805 -0.7937927l-0.29867554 -1.4907227l-0.6942291 -1.2888794l-0.29867554 -0.5946655l-0.29599 -0.3982544l-0.2986908 -0.29867554l-0.29867554 -0.09686279l-0.0995636 -0.3982544l0 -0.39553833l6.1539 4.4640503l13.198441 7.7414856l6.944992 3.075592l-0.09687805 0.1991272l0.5946655 0.19909668l7.044571 2.7769165l7.1467896 2.2818298l-2.6800537 -3.7698364l-3.075592 -4.762726l-2.3813782 -0.8933716l-2.3840637 -0.9928894l0.0995636 0l-0.6942291 -0.29870605l-4.267624 -1.8835449l-8.336151 -4.267639l-7.9378967 -4.8623047l-7.5423584 -5.459656l-3.5707092 -2.9760437l-5.2605286 -4.961853l4.068512 -4.068512l0 0l-7.343231 0.39553833l-16.174484 1.886261l-8.435699 1.3884583l-7.641922 1.3911438l-16.968262 1.886261l-8.137024 0.59469604l-4.7654266 0.29599l-4.1680756 0.09954834l1.391159 1.1920166l1.5875702 0.7937927l0.1991272 0.09957886l3.6702728 -0.29867554l0 -0.59469604l0 -0.19909668l0.09954834 -0.09957886l0.0995636 0l0.29867554 0.1991272l0.4951172 0.4951172l0.3955536 0.49780273l0.29867554 0.5946655l0.0995636 0.29867554l0 0.4951172l0.29867554 0.39822388l0.29599 0.4951172l0.39823914 0.4951172l0.99290466 1.0924683l1.0897827 1.0924683l2.1849518 1.9831238l0.6942291 0.69692993l0.09954834 0.09686279l5.755661 1.2915955l0.9902191 0.69421387l5.260544 6.44989l5.5565186 6.0543213l-25.998642 26.098206l-4.3671875 -4.5635986l-8.137024 -9.428619l-7.542343 -9.923737l-6.845436 -10.319244l-6.2534485 -10.717529l-5.65609 -11.016174l-4.9618607 -11.411743l-4.168068 -11.710419l-1.886261 -6.054352l-0.0995636 -0.49508667l-0.09687042 0l-1.7866974 -6.6490173l-2.9787292 -13.497131l-1.9831314 -13.593964l-1.1920319 -13.793121l-0.19911957 -6.848114l36.91796 0l0.19642639 5.7556458l0.9929199 11.5112915l1.7866974 11.312195l2.4809265 11.31485l1.5875854 5.556549l0.19911194 0.5946655l0.0995636 0.1991272l0 0.09954834l0.0995636 0.29599l0 0.09954834l-5.0614166 0l-0.39823914 -0.99020386l-1.983139 -0.3982544l-0.19911194 -2.5804749l-4.1680756 0.29867554l-0.6942291 1.2889099l-3.6729584 0.19909668l0.09955597 0.6942444l-0.09955597 0.5946655l-0.7937927 1.5875854l-0.6942291 0.69692993l-0.59467316 0.69421387l-0.5973587 0.29599l0 0.09957886l-0.09687042 0l-0.19911957 -0.39556885l-0.29867554 -0.29867554l-0.3955536 -0.5946655l-0.39823914 -0.49780273l-0.29599 -0.4951172l-0.0995636 -0.29867554l1.7840118 -0.4951172l1.786705 -0.39553833l0.4977951 0l0 -2.6800537l-8.833939 -0.29867554l-0.89066315 1.3884583l-3.4738388 0.1991272l0 3.5733948l-1.0924683 0.29599l-0.0995636 0.09954834l-0.5946655 0.49780273l-0.0995636 0.6942444l0 0.69421387l0.0995636 0.5946655l0.39554596 1.0924683l0.19911957 0.29870605l0 0.09954834l0.0995636 0l0.29868317 0.4951172l0.09955597 0.89334106l-0.09955597 0.4951172l-0.39824677 0.89334106l-0.19911957 0.29867554l0 0l0.0995636 -0.09954834l-0.49510956 0.7937927l-0.0995636 0.89334106l0.19911957 0.6942444l0.29599 0.69421387l0.7937927 1.1920471l0.29868317 0.29599l0.19911957 0.09954834l-0.6942291 0.49780273l-0.29868317 0.19641113l-0.3955536 0.09957886l0 0.49780273l0.19643402 0.89334106l0.8933487 1.4880066l0.5973587 0.59469604l-0.19911957 0.89334106l0.3955536 1.5875854l0.6942291 0.69421387l0.19911957 3.8721008l1.4880219 0.8906555l0 2.1849365l1.0924683 1.9831238l4.466751 0l-0.29868317 -6.3503113l-0.09955597 -0.09957886l-0.6942291 -1.0897827l0 -0.49777222l0.09955597 -0.4951172l0.59467316 -0.29867554l0.5946655 -0.1991272l0.9929123 0l0.0995636 0.09954834l0.19911957 0.6942444l0.99290466 0.89334106l0.49510956 0.29867554l0.6942291 0.29867554l0.29868317 0.09689331l0.3955536 1.1920166l1.2915878 1.7867126l0.8933487 0.49508667l0.9902191 0.29870605l1.0924683 -0.29870605l0.49780273 -0.19641113l0.7937927 -0.9929199l0.29599 -0.5973511l0.29867554 -0.9902344l0.29599 -0.29867554l0.0995636 0.09957886l0.19911957 0.39553833l0.19911194 0.49780273l0.2986908 0.4951172l0.3955536 0.7937622l0.6942291 0.7937927l0.19911194 0.1991272l0.1991272 0.29867554l0 -0.09954834l0 -0.09954834l1.4880219 -6.6490173l1.7866974 -6.0543213l0.89334106 -2.3813782l2.0826874 -4.6631775l4.068512 -6.848114l3.3742828 -4.3671875l-1.3884583 -5.2578735l-2.381363 -10.518372l-1.5875854 -10.620636l-0.8933563 -10.717529l-0.19911194 -5.3573914l33.341873 0l0.29867554 6.9476624l0.7937927 7.0445557l-2.0826874 0.29867554l-2.0853882 0.5946655l-0.29599 0.09957886l-1.0924683 3.5707092l-0.89334106 0.39822388l-1.3884735 1.2889099l-0.5973511 0.69692993l-0.7937927 1.4880066l-0.19642639 0.5946655l-1.391159 0.6942444l-0.99290466 1.0924683l-0.3955536 0.5946655l-0.19911194 0.6942444l0 0.49777222l0.19911194 0.4951172l-0.39823914 0.09957886l-0.19642639 0.09954834l-0.59736633 0l0 1.6871338l2.879181 -1.7866821l5.954773 -2.9760437l6.3503113 -2.3813782l6.8481293 -1.6871338l3.5707092 -0.49780273l-0.3955536 -0.09957886l-0.29867554 -0.09954834l-0.1991272 -0.19644165l-0.0995636 -0.09954834l-0.09686279 0l-0.0995636 -0.69421387l-0.39823914 -0.5973816l-0.5946655 -0.4951172l-0.5946808 -0.29867554l-0.5973511 -0.29599l-0.5946808 -0.19909668l-0.49510193 -0.09957886l-0.59736633 0.1991272l0 -0.09954834l-0.19642639 -0.1991272l-0.29867554 -0.39556885l-0.5946655 -3.9716187l-0.6942444 -8.037476l-0.09954834 -3.968933l13.793106 0l0 0.39822388l-3.1751556 3.371582l0.39553833 3.2747192l-1.7839966 0.5973816l-0.49780273 1.8835754l-0.9929199 5.2605286l2.879181 0.29867554l0.09954834 0.19644165l0 0.39822388l0 0.5946655l-0.19911194 0.3982544l-0.1991272 0.39553833l-0.79377747 0.3982544l-0.9929199 0.5946655l-0.49510193 0.3982544l-0.2986908 0.5946655l0 0.19909668l0 0.29599l2.4809418 -0.29599l2.4809265 -0.19909668l0.49780273 0l0 -0.1991272l0 -0.29867554l0.09954834 -0.5946655l0.09687805 -0.39556885l0.6969147 -0.5973511l0.19644165 -0.7937927l0 -0.7937927l-0.29599 -0.69421387l-0.59736633 -0.9929199l-0.29599 -0.39553833l-0.1991272 -3.9689636l4.1680756 -0.3982544l1.0924683 -1.7866821l2.4809265 0l-0.29867554 -6.0516357l0.39823914 -0.7937927l0.7937927 -0.29867554l0.7937927 0l0.3955536 0.09954834l0.39823914 0.09954834l0.09954834 0.09957886l3.5707092 0.29599l0.2986908 -0.5946655l9.229492 0l0.6942291 4.6631775l-2.4809265 2.0853577l-0.8933563 0.6942444l-0.99290466 1.6871338l-0.0995636 0.8933716l0.0995636 0.89334106l1.2888947 1.5875854l0.99290466 0.29599l0.0995636 0.09954834l0.1991272 0l0.19911194 0.29867554l0 0.3982544l0 0.29599l-0.0995636 0.19909668l-0.49780273 0l-0.79377747 -0.7937622l-0.0995636 -0.1991272l-0.29599 0l-0.7937927 0.09954834l-0.49780273 0.09957886l-0.49510193 0.39553833l-0.1991272 0.5973511l0.0995636 0.4951172l0.29867554 0.3982544l0.1991272 0.29599l0.3955536 0.39822388l0.5946655 0.5946655l0.5973511 0.29867554l0 0l-0.09954834 -0.09954834l0 -0.09954834l0 -0.09957886l0 -0.09954834l0.09954834 -0.09957886l0 -0.19909668l0.19644165 0.09954834l0 0.09954834l-0.19644165 0.49780273l-0.09954834 0.09957886l0.19642639 0.09686279l0.0995636 0l0 0.09954834l0.49780273 0l0.89334106 0.3982544l0.7937927 0l0.8933563 -0.29867554l0.49510193 -0.6942444l0.1991272 -0.9928894l-0.1991272 -0.59469604l0.99290466 -0.7937927l0.8933563 3.9689636l1.0897827 3.8693848l3.4738312 0.89334106l3.8694 0.9929199l0 0l-0.9902191 -2.8764648l-1.5875854 -6.054352l-0.6969147 -3.075592l0 0l1.4907074 1.2889099l0.8933563 1.5875854l0.09686279 0.19909668l0.19911194 0.09957886l0.0995636 0.09954834l0.1991272 0.09957886l0.19911194 0l0.4951172 0.09686279l0.5946655 0.09954834l2.3813782 0l-1.7840118 -6.44989l-2.7796173 -13.793091l-1.7866974 -14.586914l-0.7937927 -14.885574l0.0995636 -7.442795l-0.29867554 0.29599l-0.0995636 0.2986908l-0.19642639 0.39553833l-0.7937927 0.39823914l-0.49780273 0.0995636l-0.99290466 0.0995636l-0.29599 -0.0995636l-0.39823914 0l-0.4951172 0.9929199l-2.2818146 0.39553833l-0.39823914 1.2915955l-2.182251 0.3955536l0.0995636 1.1920319l6.3503265 -0.1991272l0 0.29867554l-0.2986908 0.4951172l-0.39553833 0.6942291l-0.39823914 0.39823914l-0.3955536 0.29599l0 0.0995636l-0.0995636 -0.0995636l-3.2747192 0.29867554l-1.0924683 1.0924683l-2.7769165 0l-1.2915955 1.687149l-3.9689484 -0.1991272l-0.1991272 0.0995636l-0.29599 0.29599l-0.89334106 0.7937927l-0.39823914 0.49780273l-0.3955536 0.49510193l-0.1991272 0.1991272l-0.09954834 0.29867554l-0.0995636 0.29599l0.0995636 0.39823914l0 0.0995636l0 0.29599l-0.0995636 0.29867554l-0.0995636 0.3955536l-0.19911194 0.39823914l-0.09687805 0.1991272l-0.0995636 0.09954834l0.0995636 0l-0.59736633 0.09687805l-0.39553833 0.39823914l-0.39823914 0.3955536l-0.29599 0.39823914l-0.2986908 0.49510193l-0.19911194 0.59736633l-0.0995636 0.49510193l0.29867554 0.5946808l-0.09954834 -0.0995636l0 0.29867554l-0.1991272 0.39823914l-0.29599 0.3955536l-0.49780273 0.8933563l-0.19642639 0.19911194l-0.0995636 0.1991272l-0.39823914 1.8835602l-1.3884583 0.49780273l0 5.9520874l-2.58049 1.6871338l0 2.6800537l-0.7937927 0.89334106l-16.274033 0l0.19642639 -5.656082l1.2915955 -11.212616l2.381363 -11.016205l3.2747192 -10.717499l4.267639 -10.32196l5.257843 -9.923721l6.153885 -9.425919l6.947693 -8.930817l3.8693848 -4.1680756l10.319275 10.319275l1.0924683 -3.2747192l1.3884583 -3.1751556l-8.137024 -8.137024l1.391159 -1.3884583l1.4880066 -1.2915955l-1.1920166 -0.8933563l-1.886261 -2.4809265l-0.3955536 -1.0897827l-0.0995636 -0.39823914l0 -0.39553833l-1.9858246 1.6871338l-1.8835602 1.7840118l-23.520401 -23.61728l4.5662994 -4.267624l9.625046 -7.9378967l10.1228485 -7.243675l10.717499 -6.353012l5.6560974 -2.87648l0.0995636 -0.09955597l4.068512 -1.886261l8.137009 -3.4738388l8.435699 -3.0755997l8.433014 -2.58049l8.634827 -2.082695l8.731689 -1.5875778l8.833923 -1.1920319l8.930817 -0.5946655l4.464081 -0.0995636l0 3.5734024l1.6871338 0.5946655l3.0782776 1.6871414l1.5875854 1.0924683l0 -6.9476776zm-9.329041 -49.718163l-12.205536 0.7937889l-12.205536 1.3911514l-12.009094 2.0826874l-11.807297 2.7796135l-11.710419 3.5707092l-11.511307 4.168068l-11.314865 4.7654343l-5.45697 2.6773605l-0.5946655 0.29867554l-0.49780273 0.29868317l-7.639221 3.9689484l-14.686462 9.030373l-13.895355 10.023277l-12.899765 11.212624l-12.006409 12.105972l-11.01619 13.002007l-10.023285 13.992241l-8.831253 14.686447l-3.9689484 7.738785l-4.168068 9.033066l-7.047241 18.456284l-5.2578506 18.954102l-3.5734024 19.252762l-1.6871414 19.548767l0.19911957 19.548767l1.886261 19.651001l3.7698288 19.34964l2.58049 9.6250305l0.19911957 0.5973816l0.0995636 0l1.6871414 5.3573914l3.6702652 10.421539l4.2676315 10.319275l4.8623047 9.923706l5.260536 9.724609l5.7556534 9.329041l6.1511993 9.129944l6.7485657 8.632111l7.0445404 8.435699l7.5423584 7.9379272l7.9405823 7.6419067l8.33345 7.1467896l8.73439 6.74588l9.129929 6.352997l9.425919 5.8552246l9.724594 5.3573914l5.061432 2.4809265l-0.0995636 0.09957886l0.5973511 0.29867554l4.9618683 2.2817993l10.023285 4.168091l10.020584 3.6702576l10.222397 3.078308l10.222412 2.4782104l10.219696 2.0853882l10.32196 1.4880371l10.319275 0.9928894l10.32196 0.39556885l10.219727 0l10.222382 -0.4951172l10.120148 -0.9929199l10.122864 -1.4880066l9.923706 -1.9858398l9.923737 -2.3813477l9.724579 -2.9760437l9.528168 -3.2747192l9.425934 -3.8693848l9.229492 -4.267639l9.030365 -4.6631775l8.831238 -5.16098l8.535278 -5.556549l8.336151 -5.9547424l8.037445 -6.3530273l7.7414856 -6.8454285l7.4427795 -7.1467896l7.0445557 -7.639221l6.848114 -7.940613l6.3503113 -8.432983l6.054352 -8.7344055l5.5565186 -9.129913l5.2605286 -9.425934l2.3813782 -4.961853l2.4809265 -5.16098l4.464081 -10.518402l3.772522 -10.61795l3.1751404 -10.620636l2.6773682 -10.717499l2.0853882 -10.814392l1.3884583 -10.817078l0.9928894 -10.717499l0.29867554 -10.817078l-0.19909668 -10.717499l-0.6942444 -10.717514l-1.2915955 -10.61795l-1.7839966 -10.521088l-2.2845154 -10.31926l-2.8764648 -10.222412l-3.2747192 -10.120148l-3.8720703 -9.923721l-4.2649536 -9.627731l-4.765442 -9.525482l-5.257843 -9.229492l-5.7556458 -9.030365l-6.1539 -8.632126l-6.648987 -8.435707l-7.0445557 -8.137016l-7.5423584 -7.7414703l-7.9378967 -7.343231l-8.336121 -7.047241l-8.7344055 -6.549446l-9.127228 -6.2507553l-9.627747 -5.7556534l-9.923706 -5.260536l-10.319275 -4.862301l-5.2605286 -2.182251l-4.7627563 -1.886261l-9.6250305 -3.2747192l-9.727295 -2.87648l-9.824158 -2.3813705l-9.923737 -1.886261l-10.120148 -1.3884583l-10.023254 -0.9929123l-10.222412 -0.49779892zm-207.90034 308.22733l-1.0897751 0.5973511l2.281807 4.8623047l3.3742828 10.319275l3.2747192 16.077606l1.6871414 11.013489l0.8933487 5.459656l2.182251 10.9166565l3.0755997 10.518372l3.2747192 7.5423584l2.680046 4.8623047l1.4880219 2.2817993l1.886261 2.5805054l3.9689484 4.961853l6.649002 7.0445557l4.6658707 4.2676086l0 0l-3.772522 -2.082672l-7.1441116 -5.061432l-3.4738388 -2.879181l-2.87648 -2.2817993l-5.8552094 -4.1680603l-9.229492 -5.556549l-19.352333 -9.724579l-12.899757 -6.3530273l-6.250759 -3.3742676l-9.030373 -5.556549l-5.5592194 -4.2676086l-5.3574104 -4.6631775l-4.862299 -5.260559l-4.3671913 -5.8525085l-3.8693905 -6.552124l-1.6871395 -3.670288l-1.19203 0.39556885l1.0924702 5.459656l3.4738407 10.717499l4.862299 10.319275l6.1512012 9.724609l7.146801 9.229492l8.03746 8.535248l8.731689 7.8383484l9.229488 7.047241l4.663185 3.175171l4.566307 2.779602l9.625038 4.4640503l10.023285 3.2747192l10.222397 2.4809265l15.776245 2.879181l15.679367 2.7769165l10.222397 2.4809265l4.9618683 1.5875854l0.5946655 -1.0897827l-4.4640503 -3.772522l-7.2463684 -8.137024l-5.952072 -8.930817l-4.765442 -9.425903l-5.7556458 -14.788727l-6.7458725 -20.143433l-3.872078 -9.923706l-2.7769165 -6.0543213l-6.4498825 -11.511322l-7.6419144 -11.212616l-8.435699 -10.817078l-4.3671875 -5.2605286l-0.0995636 0l0 -0.09954834zm428.3022 -0.29599l-0.19641113 0.39553833l0 0.09954834l-4.4667664 5.260559l-8.336151 10.817078l-7.5423584 11.013489l-6.5494385 11.61087l-2.6800537 5.954773l-3.8693848 9.923706l-6.848114 20.242981l-5.8525085 14.788727l-4.765442 9.425903l-5.8552246 8.831268l-7.343231 8.236572l-4.364502 3.772522l0.59469604 1.0897827l4.961853 -1.5875854l10.222382 -2.4809265l15.676697 -2.7769165l15.679382 -2.879181l10.32196 -2.4809265l10.023285 -3.2747192l9.525452 -4.4640503l4.566345 -2.779602l4.7626953 -3.175171l9.129944 -7.047241l8.731689 -7.8383484l8.037476 -8.535248l7.1467896 -9.229492l6.151184 -9.724609l4.961853 -10.319275l3.3743286 -10.717499l1.0924683 -5.459656l-1.1920776 -0.39556885l-1.6871338 3.670288l-3.8693848 6.552124l-4.3671875 5.8525085l-4.8623047 5.260559l-5.2578125 4.6631775l-5.6588135 4.2676086l-8.930786 5.556549l-6.2507935 3.3742676l-12.899719 6.3530273l-19.451904 9.724579l-9.229492 5.556549l-5.8552246 4.1680603l-2.7769165 2.2817993l-3.5733948 2.879181l-7.144104 5.061432l-3.6729736 2.182251l0 0l4.5663147 -4.3671875l8.731689 -9.525482l3.772522 -5.061432l1.5875854 -2.2817993l2.6773682 -4.8623047l3.2747192 -7.5423584l3.0782776 -10.518372l2.182251 -10.817078l0.89334106 -5.5592346l1.5875854 -10.91394l3.374298 -16.077606l3.2746887 -10.219696l2.2818604 -4.86499l0.89331055 -1.0897827zm-386.1264 63.312134l0.0995636 0.09957886l-0.9929123 0.7937927l2.8791733 4.068512l5.16098 8.831238l6.944992 13.795807l4.961853 9.127228l2.58049 4.4667664l5.954773 8.336121l5.3574066 5.556549l4.068512 3.2747192l4.466751 2.9787292l5.0614166 2.5777893l2.6773682 1.0924683l6.2534485 1.9858398l5.954773 1.8835449l0 0l-2.9787292 -0.19641113l-6.0516357 -1.0924683l-3.0782928 -0.5946655l-7.1441193 -1.3911743l-14.786011 -1.6871338l-22.723923 -1.3884583l-14.88559 -1.4880066l-7.3432236 -0.9929199l-10.620644 -2.2817993l-6.944992 -2.182251l-6.5494385 -2.7796326l-6.350319 -3.3742676l-5.954773 -4.1680603l-5.65609 -5.061432l-2.6800537 -2.8764954l-0.99290466 0.6942444l2.0853806 3.9689636l5.0587234 7.4427795l5.954773 6.947693l6.5494385 6.4498596l7.146805 5.7556458l7.639221 5.061432l7.8410263 4.364502l8.03746 3.4738464l4.068512 1.3884583l3.0755997 0.9928894l6.2534485 1.5875854l9.32637 1.3911743l12.60376 0.39553833l12.504211 -0.89334106l12.404663 -1.9831543l12.305084 -2.6800537l18.160294 -4.6631775l11.710434 -2.9787292l3.3742676 -0.69421387l7.243683 -0.6942444l3.3742676 -0.89334106l2.0827026 -0.7937927l-2.182251 -0.39822388l-6.353012 -1.3884583l-12.501526 -3.4738464l-8.930801 -3.5707092l-5.755661 -2.879181l-5.459656 -3.3742676l-5.2578583 -3.8694153l-2.4809265 -2.182251l-14.091782 -13.297974l-20.541672 -19.352356l-10.717514 -8.930786l-7.442795 -5.556549l-3.772522 -2.6800537zm343.75415 0.09957886l-3.8720703 2.5804749l-7.343231 5.556549l-10.717529 8.930786l-20.541656 19.352356l-13.992249 13.297974l-2.4809265 2.182251l-5.257843 3.8694153l-5.559204 3.3742676l-5.6560974 2.879181l-8.930817 3.5707092l-12.504211 3.4738464l-6.44989 1.291565l-2.082672 0.4951172l1.9831238 0.6942444l3.3742676 0.9928894l7.343231 0.6942444l3.374298 0.5946655l11.61084 3.0782776l18.160309 4.6631775l12.305084 2.6800537l12.404663 1.9831543l12.60376 0.89334106l12.504211 -0.39553833l9.425934 -1.4907227l6.1539 -1.4880371l3.1751404 -0.9928894l3.9689636 -1.3884583l8.037445 -3.4738464l7.841034 -4.364502l7.639221 -5.061432l7.1467896 -5.7556458l6.648987 -6.4498596l5.8552246 -6.947693l5.058716 -7.5423584l2.1849976 -3.8693848l-1.0924683 -0.6942444l-2.5805054 2.8764954l-5.656128 5.061432l-6.0543213 4.1680603l-6.2507324 3.3742676l-6.6490173 2.7796326l-6.848114 2.082672l-10.61795 2.3813782l-7.343231 0.9929199l-14.985138 1.4880066l-22.62436 1.3884583l-14.88559 1.6871338l-7.144104 1.2915955l-3.078308 0.6942444l-5.952057 0.9928894l-3.078308 0.1991272l5.954773 -1.7866821l6.2534485 -1.9858398l2.7769165 -1.0924683l4.9618835 -2.5777893l4.466736 -2.9787292l4.068512 -3.2747192l5.357422 -5.556549l5.954773 -8.336121l2.6800232 -4.4667664l4.8623047 -9.127228l7.0445557 -13.895355l5.061432 -8.731689l2.8791504 -4.068512l-0.89334106 -0.7937927zm-202.93848 69.5629l-5.45697 0.09957886l-10.61795 1.1920166l-10.32196 2.182251l-10.219711 3.0782776l-14.885574 5.556549l-19.35234 8.336151l-9.525467 4.0684814l-4.3672028 1.6871338l-9.129929 2.480957l-9.525482 1.3884277l-9.724594 0.29870605l-9.627731 -0.69421387l-9.525482 -1.8862915l-9.030373 -2.9787292l-8.435699 -4.0684814l-3.8693924 -2.5805054l-0.7937851 0.89334106l1.9831314 2.3813782l4.0685043 4.367218l6.649002 5.755615l9.627739 6.253479l10.120148 5.058716l5.260544 2.0853882l4.961853 1.7866821l10.1228485 2.2817993l10.219696 0.6942749l10.32196 -0.59472656l10.219711 -1.8862305l10.023285 -2.8764648l9.528168 -3.8720703l8.930817 -4.663208l4.267624 -2.5805054l5.852524 -3.968933l11.414429 -8.236572l8.632126 -5.556549l5.8552246 -3.0782776l6.250763 -2.182251l6.4525757 -1.2889099l3.4711304 -0.09954834l3.9689636 0.1991272l3.8720703 0.69421387l-4.8623047 2.0827026l-9.428589 4.665863l-9.129944 5.257843l-8.930817 5.656067l-12.703323 9.129944l-15.480255 12.999329l-7.0445557 6.5494385l-0.39823914 0.49780273l0.39823914 0.39556885l2.87648 2.9786987l6.0543365 5.656128l3.2747192 2.480896l0.39823914 0.39556885l0.3955536 -0.39556885l7.9378967 -8.137024l16.572739 -16.177124l12.902435 -11.113098l8.632141 -6.648987l8.831238 -5.7556458l8.734375 -4.8623047l4.3671875 -1.886261l4.464081 1.886261l8.731689 4.8623047l8.833923 5.7556458l8.632141 6.648987l12.902466 11.113098l16.570007 16.177124l7.940613 8.137024l0.39553833 0.39556885l0.39822388 -0.39556885l3.2747192 -2.480896l6.054352 -5.656128l2.8764648 -2.9786987l0.3982544 -0.39556885l-0.3982544 -0.49780273l-7.0445557 -6.5494385l-15.579803 -12.999329l-12.703339 -9.129944l-8.831238 -5.755615l-9.129944 -5.1582947l-9.428589 -4.665863l-4.8623047 -2.0827026l3.8693848 -0.69421387l3.9716492 -0.1991272l3.371582 0.09954834l6.552124 1.2889099l6.1512146 2.182251l5.954773 3.0782776l8.632111 5.556549l11.411743 8.236572l5.8552246 3.968933l4.267639 2.5805054l8.930786 4.663208l9.528168 3.8720703l10.023285 2.8764648l10.120148 1.8862305l10.421539 0.59472656l10.219696 -0.6942749l10.122864 -2.2817993l4.961853 -1.7866821l5.16098 -2.0853882l10.219696 -5.058716l9.627747 -6.253479l6.6463013 -5.755615l4.0711975 -4.367218l1.9831238 -2.3813782l-0.89334106 -0.89334106l-3.7698364 2.4809265l-8.435699 4.1680603l-9.030365 2.9787292l-9.525482 1.7867432l-9.627716 0.7937622l-9.724609 -0.29870605l-9.6250305 -1.3884277l-9.129944 -2.480957l-4.267639 -1.6871338l-9.525482 -4.0684814l-19.352325 -8.336151l-14.88559 -5.556549l-10.219696 -3.0782776l-10.421509 -2.182251l-10.61795 -1.1920166l-5.357422 -0.09957886l-3.9716492 0l-7.9378967 0.69692993l-7.7387695 1.189331l-7.7414856 1.7867126l-3.7698364 1.0924683l-3.772522 -1.0924683l-7.6419067 -1.7867126l-7.838318 -1.189331l-7.841034 -0.69692993z" fill-rule="evenodd"/></g></svg>